<?xml version="1.0" encoding="UTF-8"?>
<svg width="32px" height="32px" viewBox="0 0 32 32" version="1.1" xmlns="http://www.w3.org/2000/svg" xmlns:xlink="http://www.w3.org/1999/xlink">
    <title>icons/standard/geolocalization</title>
    <g id="icons/standard/geolocalization" stroke="none" stroke-width="1" fill="none" fill-rule="evenodd">
        <path d="M15,27.9589262 C9.17020285,27.4779778 4.52202223,22.8297972 4.04107378,17 L3,17 C2.44771525,17 2,16.5522847 2,16 C2,15.4477153 2.44771525,15 3,15 L4.04107378,15 C4.52202223,9.17020285 9.17020285,4.52202223 15,4.04107378 L15,3 C15,2.44771525 15.4477153,2 16,2 C16.5522847,2 17,2.44771525 17,3 L17,4.04107378 C22.8297972,4.52202223 27.4779778,9.17020285 27.9589262,15 L29,15 C29.5522847,15 30,15.4477153 30,16 C30,16.5522847 29.5522847,17 29,17 L27.9589262,17 C27.4779778,22.8297972 22.8297972,27.4779778 17,27.9589262 L17,29 C17,29.5522847 16.5522847,30 16,30 C15.4477153,30 15,29.5522847 15,29 L15,27.9589262 L15,27.9589262 Z M16,26 C21.5228475,26 26,21.5228475 26,16 C26,10.4771525 21.5228475,6 16,6 C10.4771525,6 6,10.4771525 6,16 C6,21.5228475 10.4771525,26 16,26 Z M16,22 C12.6862915,22 10,19.3137085 10,16 C10,12.6862915 12.6862915,10 16,10 C19.3137085,10 22,12.6862915 22,16 C22,19.3137085 19.3137085,22 16,22 Z" id="shape" fill="#007DBC"></path>
    </g>
</svg>