<?xml version="1.0" encoding="UTF-8"?>
<svg width="32px" height="32px" viewBox="0 0 32 32" version="1.1" xmlns="http://www.w3.org/2000/svg" xmlns:xlink="http://www.w3.org/1999/xlink">
    <title>icons/standard/notif_information</title>
    <g id="icons/standard/notif_information" stroke="none" stroke-width="1" fill="none" fill-rule="evenodd">
        <path d="M16,30 C8.2680135,30 2,23.7319865 2,16 C2,8.2680135 8.2680135,2 16,2 C23.7319865,2 30,8.2680135 30,16 C30,23.7319865 23.7319865,30 16,30 Z M16,28 C22.627417,28 28,22.627417 28,16 C28,9.372583 22.627417,4 16,4 C9.372583,4 4,9.372583 4,16 C4,22.627417 9.372583,28 16,28 Z M14,14 C14,13.4477153 14.4477153,13 15,13 L16,13 C16.5522847,13 17,13.4477153 17,14 L17,20 C17.5522847,20 18,20.4477153 18,21 C18,21.5522847 17.5522847,22 17,22 L16,22 C15.4477153,22 15,21.5522847 15,21 L15,15 C14.4477153,15 14,14.5522847 14,14 Z M16,12 C15.4477153,12 15,11.5522847 15,11 C15,10.4477153 15.4477153,10 16,10 C16.5522847,10 17,10.4477153 17,11 C17,11.5522847 16.5522847,12 16,12 Z" id="shape" fill="#007DBC"></path>
    </g>
</svg>