<?xml version="1.0" encoding="UTF-8"?>
<svg width="32px" height="32px" viewBox="0 0 32 32" version="1.1" xmlns="http://www.w3.org/2000/svg" xmlns:xlink="http://www.w3.org/1999/xlink">
    <title>icons/standard/search</title>
    <g id="icons/standard/search" stroke="none" stroke-width="1" fill="none" fill-rule="evenodd">
        <path d="M18.3287318,19.7429453 C16.6048612,21.1536347 14.4012702,22 12,22 C6.4771525,22 2,17.5228475 2,12 C2,6.4771525 6.4771525,2 12,2 C17.5228475,2 22,6.4771525 22,12 C22,14.4012702 21.1536347,16.6048612 19.7429453,18.3287318 L29.7071068,28.2928932 C30.0976311,28.6834175 30.0976311,29.3165825 29.7071068,29.7071068 C29.3165825,30.0976311 28.6834175,30.0976311 28.2928932,29.7071068 L18.3287318,19.7429453 L18.3287318,19.7429453 Z M12,20 C16.418278,20 20,16.418278 20,12 C20,7.581722 16.418278,4 12,4 C7.581722,4 4,7.581722 4,12 C4,16.418278 7.581722,20 12,20 Z" id="shape" fill="#007DBC"></path>
    </g>
</svg>