<?xml version="1.0" encoding="UTF-8"?>
<svg width="32px" height="32px" viewBox="0 0 32 32" version="1.1" xmlns="http://www.w3.org/2000/svg" xmlns:xlink="http://www.w3.org/1999/xlink">
    <title>icons/services/warranty</title>
    <g id="icons/services/warranty" stroke="none" stroke-width="1" fill="none" fill-rule="evenodd">
        <path d="M24.812,18.4055746 C26.077,14.9725746 26.826,10.8695746 26.973,7.9895746 C25.399,7.9545746 24.095,7.8235746 22.533,7.4765746 C20.035,6.9215746 17.818,5.9175746 15.999,4.3585746 C14.181,5.9185746 11.964,6.9215746 9.466,7.4765746 C7.904,7.8235746 6.6,7.9545746 5.026,7.9895746 C5.174,10.8675746 5.923,14.9695746 7.187,18.4035746 C9.127,23.6705746 12.047,27.0895746 15.999,27.9715746 C19.952,27.0895746 22.872,23.6715746 24.812,18.4055746 Z M28,6.0005746 C28.552,6.0005746 28.999,6.4475746 28.999,7.0005746 C28.999,10.0935746 28.191,15.0175746 26.688,19.0965746 C24.502,25.0325746 21.072,29.0015746 16.204,29.9785746 C16.202,29.9785746 16.2,29.9795746 16.198,29.9805746 L16.196,29.9805746 C16.145,29.9905746 16.099,29.9775746 16.049,29.9805746 C15.967,29.9845746 15.887,29.9975746 15.803,29.9805746 C15.802,29.9805746 15.801,29.9805746 15.8,29.9795746 L15.797,29.9795746 C10.929,29.0025746 7.498,25.0315746 5.311,19.0935746 C3.808,15.0145746 3,10.0895746 3,7.0005746 C3,6.4475746 3.447,6.0005746 4,6.0005746 C8.75,6.0005746 12.394,5.1905746 15.292,2.2935746 C15.683,1.9025746 16.316,1.9025746 16.707,2.2925746 C19.605,5.1905746 23.249,6.0005746 28,6.0005746 Z M21.2525907,10.3356362 C21.6195087,9.92285339 22.2515811,9.88567266 22.6643638,10.2525907 C23.0771466,10.6195087 23.1143273,11.2515811 22.7474093,11.6643638 L14.7474093,20.6643638 C14.3651527,21.0944026 13.699743,21.1139565 13.2928932,20.7071068 L9.29289322,16.7071068 C8.90236893,16.3165825 8.90236893,15.6834175 9.29289322,15.2928932 C9.68341751,14.9023689 10.3165825,14.9023689 10.7071068,15.2928932 L13.9571832,18.5429696 L21.2525907,10.3356362 Z" id="shape" fill="#007DBC"></path>
    </g>
</svg>