<?xml version="1.0" encoding="UTF-8"?>
<svg width="32px" height="32px" viewBox="0 0 32 32" version="1.1" xmlns="http://www.w3.org/2000/svg" xmlns:xlink="http://www.w3.org/1999/xlink">
    <title>icons/reviews/star_empty</title>
    <g id="icons/reviews/star_empty" stroke="none" stroke-width="1" fill="none" fill-rule="evenodd">
        <path d="M8.50308015,27.2376468 L15.5938615,24.0861885 C15.8524269,23.9712705 16.1475731,23.9712705 16.4061385,24.0861885 L23.4969198,27.2376468 L21.5335479,19.8499585 C21.4426247,19.5078367 21.5393549,19.1431391 21.7878826,18.8910512 L26.8652612,13.7409399 L20.8759653,12.9922779 C20.5594286,12.9527108 20.2807628,12.7644991 20.1258427,12.4856429 L16,5.05912603 L11.8741573,12.4856429 C11.7192372,12.7644991 11.4405714,12.9527108 11.1240347,12.9922779 L5.13473881,13.7409399 L10.2121174,18.8910512 C10.4606451,19.1431391 10.5573753,19.5078367 10.4664521,19.8499585 L8.50308015,27.2376468 Z M16,26.0943175 L7.40613847,29.9138115 C6.63852318,30.2549739 5.81779267,29.5549872 6.0335479,28.7431531 L8.38682034,19.8883646 L2.28788264,13.7020604 C1.7059742,13.1118162 2.05350777,12.1105293 2.87596527,12.0077221 L10.3723321,11.0706763 L15.1258427,2.51435707 C15.506848,1.82854764 16.493152,1.82854764 16.8741573,2.51435707 L21.6276679,11.0706763 L29.1240347,12.0077221 C29.9464922,12.1105293 30.2940258,13.1118162 29.7121174,13.7020604 L23.6131797,19.8883646 L25.9664521,28.7431531 C26.1822073,29.5549872 25.3614768,30.2549739 24.5938615,29.9138115 L16,26.0943175 Z" id="shape" fill="#007DBC"></path>
    </g>
</svg>