<?xml version="1.0" encoding="UTF-8"?>
<svg width="55px" height="55px" viewBox="0 0 55 55" version="1.1" xmlns="http://www.w3.org/2000/svg" xmlns:xlink="http://www.w3.org/1999/xlink">
    <title>sports_picto/acrobatic_gymnastics</title>
    <g id="sports_picto/acrobatic_gymnastics" stroke="none" stroke-width="1" fill="none" fill-rule="evenodd">
        <path d="M26.9968587,30.6376299 L28.3262499,29.9525781 L28.3923001,30.3559939 C28.3923001,30.3559939 28.3174694,30.3928232 28.2794644,30.4114676 C27.8195375,30.6373673 27.4103277,30.7794983 27.517135,31.152781 C27.7679685,32.0282161 28.2567268,33.7356265 28.3955109,34.2201193 C28.5461551,34.7462994 28.8397771,35.1853628 29.2148478,35.5184024 C29.3142507,36.5135164 29.6194707,39.4966921 29.922594,41.7396705 C30.0491902,42.6765535 30.6902309,43.1348521 31.1861971,43.3520861 L27.8089878,43.3520861 L26.9968587,30.6376299 Z M31.7900845,43.3520861 L31.7719994,36.1450918 C33.1130542,35.759664 34.1484958,34.2992925 33.7095372,32.7666409 C33.6809024,32.6665912 33.6470254,32.569627 33.610593,32.474304 C33.9166648,32.2118376 34.090964,31.8063211 34.0403779,31.3752669 C33.9597154,30.6879174 33.3382015,30.1961375 32.6521444,30.2768863 C32.2869681,30.3198867 31.9783407,30.5171632 31.7805833,30.7951229 C31.7653157,30.7889519 31.749786,30.7827808 31.734453,30.7765441 C31.6843911,29.7295014 31.5665754,28.7733831 31.3085996,28.329396 C30.7744973,27.410304 29.2772941,24.1059713 29.2772941,24.1059713 L30.5113449,19.0509653 C30.5113449,19.0509653 31.9967535,18.1537345 32.6231819,16.2510828 L36.0810537,14.1272581 C36.0810537,14.1272581 37.5976526,16.5956767 39.1194936,19.2515243 C40.1351464,21.0240589 41.6740896,21.1560142 42.5026002,20.8234999 C42.5026002,20.8234999 40.9069769,17.6009007 38.6040007,12.7183557 C37.3197569,9.99593958 36.5894698,9.81875177 34.6040324,10.8133406 C32.7496471,11.7422144 26.5907287,14.8275406 26.5907287,14.8275406 L19.1644722,17.6285391 C19.1644722,17.6285391 20.5190254,15.0219286 22.1860064,11.9397535 C23.1953687,10.0734716 22.4830357,8.29194301 21.6980999,8 C21.6980999,8 18.0342145,13.6878009 15.6471029,17.9082057 C14.1618254,20.5341828 16.4123808,21.9614014 19.3856224,21.3006399 C23.0339127,20.4898695 23.8742834,20.3554851 23.8742834,20.3554851 C23.6735118,21.5149197 23.3766791,22.3525407 22.8079791,25.026245 C22.7173566,25.4525067 22.9341821,27.2027205 23.2270833,28.1762359 C23.5602174,29.2838074 23.9915094,30.57244 23.9915094,30.57244 C23.9915094,30.57244 25.2864995,39.3304677 25.793474,41.5030699 C26.0080716,42.4228841 26.3826181,43.0582392 27.0100294,43.3520861 L12.4666681,43.3520861 L11,45.6099669 L17.1953508,45.6099669 L17.1953508,48 L19.8505293,48 L19.8505293,45.6099669 L35.1494707,45.6099669 L35.1494707,48 L37.8046492,48 L37.8046492,45.6099669 L42.5333319,45.6099669 L44,43.3520861 L31.7900845,43.3520861 Z" id="picto" fill="#007DBC"></path>
    </g>
</svg>