<?xml version="1.0" encoding="UTF-8"?>
<svg width="55px" height="55px" viewBox="0 0 55 55" version="1.1" xmlns="http://www.w3.org/2000/svg" xmlns:xlink="http://www.w3.org/1999/xlink">
    <title>sports_picto/bmx</title>
    <g id="sports_picto/bmx" stroke="none" stroke-width="1" fill="none" fill-rule="evenodd">
        <path d="M22.7228459,10.745433 L22.3506891,9.96703734 C22.6005263,9.75139655 24.4796716,8.697494 26.3214865,9.0846781 C28.8483453,9.61582751 28.7053016,11.9676705 28.7307511,12.1209878 L28.3267318,12.7804704 C28.3267318,12.7804704 28.152028,12.8214961 27.9001657,12.8699624 C27.884302,12.9110563 27.8673582,12.9520138 27.8489967,12.9927664 C27.6722003,13.3845241 27.1215595,14.6046455 26.8018543,15.3125944 C26.6656286,15.6144505 26.3704954,15.6358849 25.965261,15.4797006 C25.430754,15.2736166 24.6775297,14.888139 24.6775297,14.888139 C24.6775297,14.888139 23.4859935,13.0237575 23.3870982,12.3040674 C23.3574633,12.0884949 23.3693443,11.8701236 23.4116701,11.6530493 C23.0622626,11.4704475 22.8278842,11.3445035 22.8278842,11.3445035 L22.7228459,10.745433 Z M36.2792624,37.6203235 C33.8592645,37.6203235 31.8902696,35.6292471 31.8902696,33.1821098 C31.8902696,32.2065724 32.2038318,31.3040758 32.7333435,30.5708015 L35.3565998,32.8685125 C35.3238598,32.9671516 35.3053633,33.0723439 35.3053633,33.1821098 C35.3053633,33.7257512 35.7413801,34.1667943 36.2792624,34.1667943 C36.8172123,34.1667943 37.2533641,33.7257512 37.2533641,33.1821098 C37.2533641,32.638127 36.8172123,32.1970839 36.2792624,32.1970839 C36.1213,32.1970839 35.9725858,32.2359935 35.8406129,32.303505 L33.216479,30.0072275 C34.0079787,29.2261696 35.0887388,28.7435547 36.2792624,28.7435547 C38.6995303,28.7435547 40.6684577,30.7346312 40.6684577,33.1821098 C40.6684577,35.6292471 38.6995303,37.6203235 36.2792624,37.6203235 L36.2792624,37.6203235 Z M26.949691,33.8535383 C26.8626766,32.618331 26.7719495,31.3321999 26.6945884,30.2380225 L29.2643131,27.5321709 L29.7556842,27.9625651 L26.949691,33.8535383 Z M26.5018607,27.5261638 C26.4251072,26.4773127 26.2802408,26.256757 25.5484157,25.7105216 C24.8166581,25.1642862 19.5974175,21.2683486 19.5974175,21.2683486 L19.8575155,20.524562 C21.0044307,21.2916261 22.3095109,22.1636095 22.9065954,22.5598042 C23.1236249,22.7038378 23.3441648,22.7946267 23.5597093,22.84753 C23.461219,22.9594803 23.4349594,23.125153 23.5066501,23.2665926 C23.5998749,23.4504232 23.8227099,23.5229861 24.0045693,23.428784 L25.7724658,22.5126349 L29.5296764,26.2243324 L29.0596369,26.6877655 C29.0328373,26.7042167 29.0071178,26.7230572 28.9843685,26.7470172 L28.7607234,26.9825224 L28.7023988,27.0399993 L28.704424,27.0417741 L26.6235053,29.2329958 C26.5630205,28.3788289 26.5181295,27.748426 26.5018607,27.5261638 L26.5018607,27.5261638 Z M24.8230711,38.3184427 L21.7829695,35.4099201 L24.2620345,32.7994993 C24.6167074,34.6008746 24.9707728,36.3943316 25.0402357,36.7297045 C25.0752035,36.8983808 25.1411562,37.150815 25.2507848,37.4203831 L24.8230711,38.3184427 Z M21.0057808,27.3192606 L23.4666869,28.7542036 C23.4666869,28.7542036 23.7551371,30.2234144 24.0859807,31.9049211 L21.2456272,34.895768 L21.0522245,34.7108453 L21.7691309,30.1496228 L21.0057808,27.3192606 Z M23.2550578,39.6165879 C22.628676,38.8219458 21.8005884,38.1977548 20.849371,37.8233358 L21.427014,36.0992334 L24.3437159,38.8895938 L23.2550578,39.6165879 Z M20.4217249,39.0998419 C21.0919851,39.37412 21.6804964,39.8105896 22.1391275,40.3616716 L19.3822781,42.2025026 L20.4217249,39.0998419 Z M18.7809408,47.6535932 C16.3607404,47.6535932 14.3918805,45.6625168 14.3918805,43.2153112 C14.3918805,40.7679009 16.3607404,38.7768927 18.7809408,38.7768927 C19.1013885,38.7768927 19.4136006,38.8127304 19.7146743,38.8789449 L18.5852429,42.2501497 C18.141058,42.3418261 17.8069742,42.739113 17.8069742,43.2153112 C17.8069742,43.7590209 18.2430585,44.200064 18.7809408,44.200064 C19.3188906,44.200064 19.7549749,43.7590209 19.7549749,43.2153112 C19.7549749,43.1002891 19.7344533,42.9903185 19.6986755,42.8877202 L22.5663686,40.9728245 C22.9493262,41.6314197 23.1700686,42.3975964 23.1700686,43.2153112 C23.1700686,45.6625168 21.2010737,47.6535932 18.7809408,47.6535932 L18.7809408,47.6535932 Z M36.2792624,27.3971479 C34.6870822,27.3971479 33.2453037,28.0588833 32.2072071,29.1240491 L29.7919346,27.0105099 L30.5877547,26.2259024 L25.9097041,21.6009911 L24.9267593,22.1104331 L20.9830315,18.2038466 L24.0669442,15.3535518 C24.0669442,15.3535518 23.5856313,14.4774044 22.7742175,13.1221918 C22.0351693,11.8880766 19.5512439,12.6855858 17.1938234,15.0177692 C15.3079276,16.8834478 14.8141937,17.3565059 13.953501,18.203437 C13.0928083,19.0503681 12.021769,20.9245794 14.721779,23.6549372 L14.721779,23.6549372 L18.6342518,29.9399891 L18.2905147,37.4530808 C15.3650371,37.7056515 13.0602707,40.1925857 13.0602707,43.2153112 C13.0602707,46.4050747 15.6266201,49 18.7809408,49 C21.935329,49 24.5016784,46.4050747 24.5016784,43.2153112 C24.5016784,42.1237278 24.2008747,41.1019086 23.6790586,40.2297887 L25.2255378,39.197184 L25.704893,38.1908603 C26.0526804,38.5950418 26.5600503,38.8670673 27.2904578,38.6917695 C27.2904578,38.6917695 27.1874447,37.2272006 27.0555393,35.3551737 L30.3350148,28.4700274 L31.7244766,29.6871453 C30.9935966,30.6587917 30.5585924,31.8698342 30.5585924,33.1821098 C30.5585924,36.3716685 33.1250093,38.9667986 36.2792624,38.9667986 C39.4337181,38.9667986 42,36.3716685 42,33.1821098 C42,29.9921415 39.4337181,27.3971479 36.2792624,27.3971479 L36.2792624,27.3971479 Z" id="picto" fill="#007DBC"></path>
    </g>
</svg>