<?xml version="1.0" encoding="UTF-8"?>
<svg width="55px" height="55px" viewBox="0 0 55 55" version="1.1" xmlns="http://www.w3.org/2000/svg" xmlns:xlink="http://www.w3.org/1999/xlink">
    <title>sports_picto/boat</title>
    <g id="sports_picto/boat" stroke="none" stroke-width="1" fill="none" fill-rule="evenodd">
        <path d="M33.167016,31.5062247 L22.9547841,32.8075518 L22.954406,32.8047961 C22.8273903,32.9054426 22.6606821,32.9808491 22.4446419,32.9849827 C20.4438284,33.0235628 19.2209236,33.0319552 19.2209236,33.0319552 L16.8172635,31.9362426 C16.9176287,32.7872597 17.020703,33.6394667 17.020703,33.6394667 L17.6684456,35.5003932 C17.6684456,35.5003932 21.1651596,36.8122421 21.6105968,37.0172302 C22.1456886,37.2634916 22.1956506,37.3162887 22.544944,37.8262225 C22.7754751,38.1629843 25.7174401,43.29965 25.7174401,43.29965 L24.2431499,43.29965 C23.6881489,43.29965 23.247815,43.399357 22.8117023,43.5767253 C21.7655863,42.3050849 20.1133102,40.29203 20.1133102,40.29203 C20.1133102,40.29203 18.3660873,39.7983173 16.1265523,39.1655034 C13.8870172,38.5326268 13.7331618,36.6849778 13.7331618,36.6849778 L13.0726294,34.3302761 L13.5154835,33.2787176 L13.426459,32.8674887 L11.8415971,35.6611645 C11.8415971,35.6611645 10.8181624,36.466399 9.68718024,37.4133026 C8.52677523,38.3849451 8,37.7466823 8,37.7466823 L10.6663232,35.0145093 C10.6663232,35.0145093 11.4348442,33.2050021 11.8662316,32.2294139 C12.3717115,31.0863529 12.6606472,30.7621172 13.2479691,30.5979638 C14.6857171,30.1961295 15.9279641,29.8688249 15.9279641,29.8688249 C15.9279641,29.8688249 16.2334068,29.8156519 16.4454148,29.9809953 L19.4309154,31.8002102 L23.3032584,32.2579732 L33.1897603,30.9981698 L34.3564657,5 L34.9696823,5.31709591 C35.1703495,5.42081127 39.8926145,7.88398828 40.6762564,10.1815088 C41.1842565,11.6711018 47.1624403,30.4060027 46.9966142,33.2227264 L46.9862815,33.3980905 L46.8569976,33.5178391 C42.8396828,37.2396295 35.0626759,40.2460595 33.6338115,40.7791038 L33.495455,43.8633204 L46.3203938,43.8633204 C47.173214,43.8633204 45.6580973,45.6569822 43.1498508,47.3049039 C41.0187454,48.7050612 38.1706561,50 35.4489526,50 C33.8820467,50 32.5987212,48.9030348 32.5816471,47.5567393 C32.5815211,47.5477206 32.5808281,46.3336372 32.5808281,46.3336372 C32.5808281,45.9393811 32.6901398,45.5662313 32.8829316,45.2346678 L32.2480417,45.2346678 C32.0973365,45.575751 32.0137934,45.9461451 32.0137934,46.3336372 L32.0137934,47.2584951 C29.8752535,48.676314 26.9948433,50 24.2431499,50 C22.6656594,50 21.3750254,48.8883793 21.3750254,47.5297458 L21.3750254,46.3336372 C21.3750254,45.2946048 22.1301896,44.4007488 23.1907965,44.0373066 C23.5171565,43.925512 23.8719942,43.8633204 24.2431499,43.8633204 L32.612456,43.8633204 L33.167016,31.5062247 Z M39.8409513,10.4630935 C39.3584678,9.04878185 36.7058165,7.30040153 35.1752638,6.42921761 L34.2738047,26.5169901 L46.0679373,32.459454 C45.5273013,28.4329058 40.8233704,13.343825 39.8409513,10.4630935 L39.8409513,10.4630935 Z M34.23071,27.4782987 L34.0777997,30.8849973 L39.5962444,30.1818498 L34.23071,27.4782987 Z M45.7800097,33.2975693 L40.3965193,30.5849994 L34.0549923,31.3930522 L33.6767171,39.8233067 C34.5107622,39.5018893 36.1874208,38.8307458 38.1085343,37.9246769 C41.3922953,36.3758986 44.0266754,34.7855965 45.7800097,33.2975693 L45.7800097,33.2975693 Z M12.1393533,28.4760579 C11.8310754,27.6209699 12.3645921,26.7546712 13.1182442,26.4859256 C13.8713923,26.217368 14.8247036,26.60962 15.1288232,27.4529962 C15.2262272,27.7233701 15.550886,28.6594387 15.7128059,29.152024 C15.7819212,29.3623357 15.6467779,29.5253617 15.3630085,29.6015825 C15.0020595,29.6985338 14.4750952,29.8501611 14.4750952,29.8501611 C14.4750952,29.8501611 12.9786276,29.5159046 12.6390999,29.2230465 C12.4134831,29.0287681 12.2458928,28.7722354 12.1393533,28.4760579 L12.1393533,28.4760579 Z" id="picto" fill="#007DBC"></path>
    </g>
</svg>