<?xml version="1.0" encoding="UTF-8"?>
<svg width="55px" height="55px" viewBox="0 0 55 55" version="1.1" xmlns="http://www.w3.org/2000/svg" xmlns:xlink="http://www.w3.org/1999/xlink">
    <title>sports_picto/boules</title>
    <g id="sports_picto/boules" stroke="none" stroke-width="1" fill="none" fill-rule="evenodd">
        <path d="M33.9494537,15.7870187 L28.9555426,13.9070964 C28.9555426,13.9070964 23.4284761,12.6402069 22.2361331,12.3735465 C21.0437901,12.106886 19.911252,11.8114384 17.5561765,12.7007274 C15.8656268,13.3390962 13.160397,14.5691179 11.7154892,15.2145573 C10.9101677,15.5742291 10.7222454,15.7804532 10.364751,16.5372536 C10.0634749,17.1750333 7,23.6605716 7,23.6605716 C7,23.6605716 8.89482025,24.4443075 10.3721745,21.8068272 C11.8288431,19.2062147 12.8189173,17.7790596 12.8189173,17.7790596 L16.1133539,16.3818701 L18.7795479,15.8572191 L18.6481775,16.361921 L16.7344232,16.9282377 L14.1920093,21.9035421 C14.1920093,21.9035421 11.8866461,24.8674457 14.3059471,28.887806 C16.7253316,32.9080822 18.6127283,36.0446249 18.6127283,36.0446249 C18.6127283,36.0446249 18.0320294,45.2336352 17.9277671,47.0152433 C17.8235049,48.7968514 18.5429143,50.1330996 20.4478272,49.9894161 L20.9740596,47.5466282 C21.0467095,48.9192391 21.9090833,50.0347012 23.4536659,49.9894161 C23.4536659,49.9894161 25.4127117,36.6861924 25.5588456,35.713067 C25.7450163,34.4733654 25.7440153,34.3261467 25.2961048,33.2238998 C24.923263,32.3063287 21.8936525,24.8497693 21.8936525,24.8497693 L23.2955209,21.6387334 L28.1386271,17.6107133 L34.3386438,18.5367859 C34.3386438,18.5367859 40.5535074,17.3092052 41.8563683,17.0496154 C43.1592293,16.7900255 44.2852615,16.3366691 44.4099591,14.7654938 L33.9494537,15.7870187 Z M48,17.5576843 C48,16.7696556 47.3670031,16.1307817 46.5860372,16.1307817 C45.8050713,16.1307817 45.171991,16.7696556 45.171991,17.5576843 C45.171991,18.3457971 45.8050713,18.9847552 46.5860372,18.9847552 C47.3670031,18.9847552 48,18.3457971 48,17.5576843 L48,17.5576843 Z M23.6576862,9.42151124 C23.4550838,8.85426864 23.4151305,8.2339128 23.5208107,7.60362454 C23.8246726,5.78312847 25.6094754,4.77456623 27.1900909,5.04282594 C28.769789,5.31083313 30.048044,6.94808434 29.7486029,8.74366517 C29.6524314,9.31898839 29.2973559,11.299245 29.0950038,12.3323016 C29.0085912,12.7734529 28.7477688,12.9633475 28.1771624,12.8181488 C27.4513304,12.6333047 26.2461423,12.3470319 26.2461423,12.3470319 C26.2461423,12.3470319 23.9622154,10.2760367 23.6576862,9.42151124 L23.6576862,9.42151124 Z" id="picto" fill="#007DBC"></path>
    </g>
</svg>