<?xml version="1.0" encoding="UTF-8"?>
<svg width="55px" height="55px" viewBox="0 0 55 55" version="1.1" xmlns="http://www.w3.org/2000/svg" xmlns:xlink="http://www.w3.org/1999/xlink">
    <title>sports_picto/brisk_walk</title>
    <g id="sports_picto/brisk_walk" stroke="none" stroke-width="1" fill="none" fill-rule="evenodd">
        <path d="M26.3936193,12.5808557 C26.3464656,12.5751557 26.3026089,12.5701557 26.2629692,12.5655557 C26.1961874,12.5566557 26.1587712,12.5516557 26.1587712,12.5516557 C26.1587712,12.5516557 26.2672629,12.5651557 26.3936193,12.5808557 L26.3936193,12.5808557 Z M25.6433014,8.64376658 C25.5266058,8.10906983 25.563562,7.54631989 25.7334684,6.99123477 C26.2251696,5.38959725 27.9654837,4.6945528 29.3702786,5.12508486 C30.7737701,5.55515703 31.7416847,7.18116862 31.2569607,8.7623411 C31.1017754,9.26852478 30.5544865,11.0526613 30.2737116,11.9678389 C30.1543324,12.3577475 29.7116249,12.2481408 29.1761437,12.1830666 C28.5715804,12.1094845 28.0294286,12.0438738 28.0294286,12.0438738 C28.0294286,12.0438738 25.818575,9.4496441 25.6433014,8.64376658 L25.6433014,8.64376658 Z M25.9600359,25.3303522 L21.8835851,19.3609259 L25.8322227,16.9629152 L25.7044095,17.5632994 L23.9162517,18.8673125 L23.868178,21.2945261 L26.078495,24.7516594 L25.9600359,25.3303522 Z M34.1370892,21.0354557 C34.6297105,21.4320327 35.1301524,21.3649657 35.4119241,21.0548477 L35.4250352,21.055001 C35.4250352,21.055001 39.2483897,17.2028236 40.4536826,15.9978397 C41.6590522,14.7929325 40.4937824,13.3095629 40.4937824,13.3095629 L35.1640417,17.7084708 C35.1640417,17.7084708 32.360279,14.220065 32.06992,13.8582862 C31.6790432,13.3713412 31.5014695,13.089583 30.7618858,13.0139314 C30.2827589,12.9649533 27.449554,12.6621935 26.3936193,12.5657703 C26.6955559,12.5945133 27.1003871,12.6332206 26.3756779,12.565617 C26.3315912,12.5610948 26.2943283,12.5572624 26.2629692,12.5540431 C26.2244796,12.5507473 26.1883668,12.5476814 26.1575444,12.5452286 C24.7492992,12.4332458 24.2845101,12.9501602 22.6825133,14.4940818 C22.6825133,14.4940818 19.2120059,17.8029011 18.7989707,18.2158042 C18.3859356,18.6287838 17.9679934,19.4300625 18.7272052,20.2204571 C19.1970548,20.7096249 22.7739837,24.1817812 23.6992683,25.0899073 C22.643257,26.1455808 22.5532434,27.9524051 23.2770325,29.4627548 L21.2407622,36.8395157 C21.2407622,36.8395157 16.2469241,44.9463493 15.691738,45.8705714 C15.1365519,46.7948702 14.2601844,48.3895327 16.1658045,49.5389468 L24.3341172,38.9472603 L27.3530232,34.5183064 L25.244374,32.0625797 L25.3744874,31.5671268 C25.3744874,31.5671268 26.0979698,32.3136021 27.9174867,34.1326134 C29.7370802,35.9515482 31.4139094,38.1872949 31.4139094,38.1872949 C31.4139094,38.1872949 35.6609567,46.9144411 36.1316496,47.8633439 C36.6023425,48.8123233 37.8314806,50.6242064 40.0503849,49.7832241 L35.2037581,36.464017 L30.3435603,27.8360533 L32.3024679,19.6253617 L34.1370892,21.0354557 Z" id="picto" fill="#007DBC"></path>
    </g>
</svg>