<?xml version="1.0" encoding="UTF-8"?>
<svg width="55px" height="55px" viewBox="0 0 55 55" version="1.1" xmlns="http://www.w3.org/2000/svg" xmlns:xlink="http://www.w3.org/1999/xlink">
    <title>sports_picto/canoe</title>
    <g id="sports_picto/canoe" stroke="none" stroke-width="1" fill="none" fill-rule="evenodd">
        <path d="M36.4997084,34.3125884 C36.4121186,34.397221 36.4088582,34.53781 36.4925608,34.6265029 L40.2137206,38.5711165 C40.2568572,38.6167952 40.3146025,38.6398249 40.372536,38.6398249 C40.4269584,38.6398249 40.4815061,38.6194598 40.5240157,38.578349 C40.6116056,38.4937164 40.614866,38.3531274 40.5311634,38.2644345 L36.8099409,34.3198209 C36.7263011,34.2312549 36.587361,34.2277021 36.4997084,34.3125884 L36.4997084,34.3125884 Z M19.9566925,16.9411514 C19.9998918,16.9867667 20.0576371,17.0098598 20.1155706,17.0098598 C20.169993,17.0098598 20.2245407,16.9894313 20.2670503,16.9484473 C20.3546402,16.8637513 20.3579006,16.7231622 20.2742607,16.6344693 L16.5531009,12.6897289 C16.4693357,12.6010994 16.3304583,12.597737 16.2428057,12.682433 C16.1552159,12.767129 16.1519555,12.9076546 16.2355954,12.9964109 L19.9566925,16.9411514 Z M16.070322,35.7994951 L16.4688341,33.4823772 C16.6079622,32.6738634 16.7405696,29.6335621 16.7405696,29.6335621 C16.7405696,29.6335621 15.8220357,26.6832861 15.6119955,26.0595809 C15.2523565,24.9915864 15.2300358,24.6016675 16.3961037,23.734152 C16.9028335,23.3571754 20.0323069,21.0179161 21.9049876,19.6179894 L20.5914527,18.2256123 L20.3017854,18.4888996 C20.0922468,18.6791008 19.8295398,18.7727422 19.5679614,18.7727422 C19.271021,18.7727422 18.9753972,18.6521376 18.7597769,18.4152426 L14.0200163,13.8576456 L14.0118028,13.848383 C13.8030792,13.6145332 13.7011314,13.331769 13.7169314,13.0307334 L13.7169941,13.0304796 C13.7326688,12.7342657 13.8614516,12.4617158 14.0793918,12.2630767 L16.2563486,10.284616 C16.474038,10.0862941 16.7547395,9.98561051 17.0490466,10.0016615 C17.3419116,10.0173953 17.61139,10.1476432 17.8076365,10.3685507 L17.82375,10.3882179 L21.8150779,15.664811 C21.9874989,15.8645287 22.077346,16.1449454 22.0618594,16.4367819 C22.0458713,16.7378175 21.9177154,17.019059 21.7103086,17.2083086 L21.3282862,17.5556574 L22.7077173,19.0178214 C23.0852881,18.7355648 23.3165831,18.5625565 23.3165831,18.5625565 C23.3165831,18.5625565 23.6719585,19.274003 23.5848075,19.9475742 L33.5617792,30.5236633 L34.2591753,30.3590295 C34.2591753,30.3590295 34.4931036,30.8633355 34.3469533,31.3560315 L36.0052049,33.1138385 L36.3909891,32.7631273 C36.8455537,32.3508766 37.54458,32.3851991 37.9565096,32.8374187 L42.6962702,37.3949522 L42.7049853,37.4046589 C42.916781,37.6420615 43.0202964,37.9291398 43.0041828,38.2348702 L43.0041201,38.2350605 C42.9881947,38.5358423 42.8574682,38.8125794 42.6360796,39.0142638 L41.9082746,39.6758443 L41.1522554,39.4426289 L42.1836467,38.5051995 C42.2719263,38.4247542 42.3220852,38.3186145 42.3285431,38.1983906 C42.3346249,38.0803237 42.2949367,37.9706313 42.210419,37.8722317 L37.4719751,33.3159036 L37.4630092,33.3058796 C37.301435,33.1239894 37.0233042,33.1089535 36.8429831,33.2726356 L35.4351495,34.5524019 C35.3567763,34.6239652 35.3076834,34.7375911 35.3010373,34.8637786 C35.2946421,34.9830509 35.327308,35.0951542 35.388251,35.163482 L35.4058693,35.1848622 L37.8579474,38.4265306 L36.7465527,38.0836862 L34.875941,35.610753 C34.700824,35.4077998 34.6095975,35.123069 34.6253349,34.8269819 C34.6415738,34.5213784 34.771736,34.2358228 34.9825286,34.0435914 L35.2683087,33.7837935 L33.6549492,32.0735051 C33.6230984,32.0872087 33.5907459,32.1006586 33.5562617,32.1131568 C33.2586943,32.2217072 32.8976133,32.3545563 32.5396045,32.486644 L32.5455608,32.4937496 C32.5455608,32.4937496 30.1454598,33.4597916 29.6201086,33.6513251 C28.9373212,33.9004012 28.7840859,33.9383399 27.9922658,33.7784643 C27.3337427,33.6454884 24.1854598,32.8305669 24.1854598,32.8305669 L23.4713231,33.6865358 L22.6579347,36.1805954 C22.6579347,36.1805954 21.8726979,36.8717402 19.4902151,36.8717402 C17.2331296,36.8717402 16.070322,35.7994951 16.070322,35.7994951 L16.070322,35.7994951 Z M47.205112,42.0668095 L29.306553,36.5130986 C29.306553,36.5130986 29.1876766,36.4634864 29.0625929,36.4657069 L23.5877544,36.2220869 C23.3424776,36.5523697 22.9469123,36.840463 22.4175484,37.0649867 C22.3993658,37.0726633 22.3806189,37.0798323 22.3622482,37.087382 C22.2174146,37.1466375 22.0653078,37.2003734 21.9068686,37.2483361 L21.9068059,37.2483996 C21.7487428,37.2962988 21.5843472,37.3386151 21.4146849,37.3751581 C20.9001177,37.485929 20.3371473,37.5438522 19.7529221,37.5438522 C19.6225091,37.5438522 19.491281,37.5410607 19.3591124,37.5351606 C18.2191272,37.4852946 17.1511198,37.2242279 16.3522147,36.7999231 C15.8407199,36.528198 15.4698579,36.2042595 15.2542375,35.8511374 L5.58724757,35.4209325 C4.48970922,35.3686557 5.03462243,35.9886178 6.36251531,37.1628788 C7.72959479,38.3716526 11.447745,40.769089 14.9282677,42.0132638 C18.4086022,43.2575656 23.8897106,44.6705615 26.8908401,45.1553906 C29.8919695,45.640537 33.101509,45.9989883 35.8110274,45.9989883 C38.5202324,45.9989883 42.3383241,46.0638267 46.5650223,45.1553906 C50.9598155,44.2109191 51.0985047,43.1903798 47.205112,42.0668095 L47.205112,42.0668095 Z M16.2355954,12.9964109 L19.9566925,16.9411514 C19.9998918,16.9867667 20.0576371,17.0098598 20.1155706,17.0098598 C20.169993,17.0098598 20.2245407,16.9894313 20.2670503,16.9484473 C20.3546402,16.8637513 20.3579006,16.7231622 20.2742607,16.6344693 L16.5531009,12.6897289 C16.4693357,12.6010994 16.3304583,12.597737 16.2428057,12.682433 C16.1552159,12.767129 16.1519555,12.9076546 16.2355954,12.9964109 L16.2355954,12.9964109 Z M19.2199843,17.960739 L19.2284486,17.9702555 C19.3964808,18.1594416 19.6853331,18.1748582 19.8726137,18.0048952 L21.2803845,16.7250021 C21.3620181,16.6504569 21.4131801,16.5325169 21.4200769,16.4018884 C21.426723,16.2780482 21.3924269,16.1613771 21.3284743,16.0896868 L21.3118592,16.0693852 L17.3221615,10.795076 C17.2414685,10.7083498 17.1326865,10.6573419 17.0147505,10.6509976 C16.8924256,10.6439555 16.7762451,10.686018 16.6860219,10.7681128 L14.5091905,12.7465735 C14.4187791,12.8289222 14.3652973,12.9421674 14.3587139,13.0651828 C14.352256,13.1881348 14.3935743,13.3022047 14.4814777,13.4042841 L19.2199843,17.960739 Z M22.0876285,21.8294751 C23.0533745,21.9462731 23.8458844,22.538257 24.2792568,23.0279078 C25.0408563,23.920166 24.6863586,25.3470558 24.6863586,25.3470558 L24.285464,25.259949 C24.2450861,25.4593494 24.1779986,25.6572907 24.0804397,25.8487608 C23.8893972,26.2242781 23.2158265,27.5472488 22.8704828,28.2257685 C22.7230158,28.5150673 22.3952277,28.366421 21.988941,28.239599 C21.5305518,28.0964723 21.1194373,27.9683815 21.1194373,27.9683815 C21.1194373,27.9683815 20.7326499,27.2963329 20.369249,26.5706753 L19.9843425,26.5706753 C19.9843425,26.5706753 19.4250086,25.4015531 19.1120801,24.822004 C18.6789584,25.2574113 18.3941189,25.5436648 18.3941189,25.5436648 L19.4196166,28.1432296 L24.7088674,29.7832869 L28.5547346,31.7057912 L32.4422336,30.7879656 L23.0637198,20.8463035 C22.8330518,21.0790114 22.4880843,21.4264236 22.0876285,21.8294751 L22.0876285,21.8294751 Z" id="picto" fill="#007DBC"></path>
    </g>
</svg>