<?xml version="1.0" encoding="UTF-8"?>
<svg width="55px" height="55px" viewBox="0 0 55 55" version="1.1" xmlns="http://www.w3.org/2000/svg" xmlns:xlink="http://www.w3.org/1999/xlink">
    <title>sports_picto/canyoning</title>
    <g id="sports_picto/canyoning" stroke="none" stroke-width="1" fill="none" fill-rule="evenodd">
        <path d="M40.178483,43.0299096 C39.2634004,41.6597316 35.1050719,35.4383193 33.6293895,33.3071051 C33.224825,32.722914 32.8666641,32.2501017 32.089462,31.8676282 C31.3122599,31.4851547 27.1065105,29.4154178 27.1065105,29.4154178 L28.8043512,27.3837719 C28.8043512,27.3837719 35.513549,31.1155868 36.4154853,31.574946 C37.2592018,32.0046616 38.6279132,32.7296405 39.9219719,31.6167913 L41.3798127,39.4103338 C41.3798127,39.4103338 40.8466014,41.0110127 40.178483,43.0299096 L40.178483,43.0299096 Z M45,5 L44.3739814,5 L44.3739814,12.0077903 L39.0006291,26.6917999 L39.8229827,31.0878985 C36.6946113,28.7736602 30.1206336,24.063683 30.1206336,24.063683 C30.1206336,24.063683 28.3029886,22.2468166 26.3600616,23.5624785 C24.4170564,24.8779839 22.2234872,26.1934893 22.2234872,26.1934893 L21.8035853,25.7292807 L25.0201471,20.9306855 C25.0201471,20.9306855 24.0913702,20.5535306 23.1538291,20.7934174 L29.3179995,5.03175547 C29.3220686,5.0212746 29.3251204,5.0106373 29.3285635,5 L28.1462492,5 L21.3835268,22.2924162 L20.1044926,23.8508588 L18.0868346,21.6202328 C18.0868346,21.6202328 13.7458652,20.5913869 12.712465,20.3432876 C11.6789865,20.09511 9.93896787,19.928824 10.001648,21.9335638 C10.0643281,23.938069 13.0727387,29.4510841 13.0727387,29.4510841 C13.0727387,29.4510841 17.4569034,33.1641273 18.033623,33.6204361 C18.3123578,33.8410819 18.779759,34.1393173 19.3243169,34.3041173 L21.1202077,49.9980446 C21.120286,49.9986703 21.1204425,49.9992961 21.1205207,50 L22.2320167,50 L20.4451249,34.3986797 C20.6985059,34.3580077 20.952826,34.269546 21.1997903,34.1156963 L20.2559891,32.5222914 L30.446398,35.5611958 C30.446398,35.5611958 35.6028349,41.3423333 36.2992023,42.0984419 C36.9433755,42.7979226 38.1959604,44.0383412 40.0505405,43.4166849 C39.2842937,45.7335826 38.3800099,48.4825423 37.8978191,50 L38.5464526,50 C39.5208505,47.075603 42.004814,39.5526077 42.004814,39.5526077 L39.6258651,26.8019272 L45,12.115884 L45,5 Z M12.1044444,17.176892 C12.4486764,18.0859901 13.6673781,19.9111473 13.6673781,19.9111473 C13.6673781,19.9111473 14.3595982,20.0837687 14.9105728,20.2028126 C15.3746873,20.3030848 15.7795648,20.3609642 15.9080552,20.0255764 C16.2094831,19.2388856 16.7763429,17.7588931 16.9430987,17.3233895 C17.0968645,16.9220661 17.1386512,16.5097926 17.0913868,16.1158996 L18.6422696,16.3364672 L18.6792047,15.8347151 L17.9208614,15.1961643 C17.5920452,13.8108125 16.3978365,12.7362888 14.901652,12.6262397 C13.0533321,12.4903013 11.4448556,13.8777649 11.3087748,15.7251353 C11.2669881,16.2932922 11.3693421,16.8390796 11.5850838,17.3260489 L12.1044444,17.176892 Z" id="picto" fill="#007DBC"></path>
    </g>
</svg>