<?xml version="1.0" encoding="UTF-8"?>
<svg width="55px" height="55px" viewBox="0 0 55 55" version="1.1" xmlns="http://www.w3.org/2000/svg" xmlns:xlink="http://www.w3.org/1999/xlink">
    <title>sports_picto/cricket</title>
    <g id="sports_picto/cricket" stroke="none" stroke-width="1" fill="none" fill-rule="evenodd">
        <path d="M41.7404991,33.2663116 C42.436103,33.2663116 43,32.6941538 43,31.9882247 C43,31.2824981 42.436103,30.7102052 41.7404991,30.7102052 C41.0448287,30.7102052 40.4809317,31.2824981 40.4809317,31.9882247 C40.4809317,32.6941538 41.0448287,33.2663116 41.7404991,33.2663116 L41.7404991,33.2663116 Z M15.3877481,34.0023579 C15.3877481,34.0023579 12.2592611,44.7044034 12.1395337,45.1388733 C11.5439578,47.2987977 13.0477053,48 13.0477053,48 L18.5461836,36.474393 L15.7248351,32.0169237 L15.3877481,34.0023579 Z M29.5939195,22.6662322 C29.0747456,22.2421615 28.8283027,21.8154573 28.7258123,21.1929917 L24.4807786,17.8055581 L24.3145311,18.1019349 L27.9064878,21.4764033 L26.7918046,23.9718028 L29.2346706,23.1038084 L29.5939195,22.6662322 Z M38.9351232,39.5638967 L35.5521405,40.8434692 L30.0790852,25.9463651 L30.8749832,25.1761501 L30.7887316,24.9439916 L30.1472347,24.9601306 C28.4078923,25.7099524 25.409049,27.0024902 25.1556847,27.1101286 C24.7969682,27.2626049 24.4051087,27.2302594 24.0787366,27.0174813 C23.7523645,26.8047031 23.5224265,26.5665347 23.5712759,26.0383371 L23.7918965,23.6548302 L21.4612376,26.9111935 L20.8021044,29.2877451 L22.8975677,34.4413521 L25.9630963,47.8843259 C24.5020753,48.443316 23.4629289,46.6677562 23.205638,46.0739897 C22.9044226,45.3786623 18.8815402,35.7717052 18.8815402,35.7717052 C18.8815402,35.7717052 16.6570321,32.3343015 15.6870335,30.841343 C14.7980288,29.4731072 13.9868238,28.2103489 13.6633134,27.2622673 C12.9244506,25.0966706 14.5338165,23.3177345 15.900533,22.2615418 C15.900533,22.2615418 19.4375175,15.3886252 20.3517454,14.0163378 C21.2659734,12.6439829 22.6722884,11.1305637 25.0335614,13.8693311 C25.5920011,14.5170519 28.3101271,17.7254709 29.9420542,19.6501306 C29.9420542,19.6501306 30.9760095,20.0242312 31.3584852,20.5605996 C31.7176675,21.0642174 31.8578265,21.6398866 31.7836873,22.1181141 C32.1177129,22.2318299 32.3816591,22.4487272 32.5117687,22.7542201 C32.7015091,23.1993593 32.5613501,23.7255987 32.1938487,24.1565571 L32.3635569,24.6131759 L33.4620679,24.6667925 L38.9351232,39.5638967 Z M26.3363212,11.8027293 L25.8908871,11.3483389 C25.8908871,11.3483389 25.9445948,9.47965915 27.2476208,8.5909339 C28.5506468,7.70227618 30.0546605,7.86400378 31.0163402,8.75461979 C31.9780864,9.64516827 32.6111311,11.407155 31.7834877,12.3270778 L32.1723523,13.9647471 L31.9716974,14.1878569 L30.9324844,13.3098684 C30.7752215,13.4707857 30.5946653,13.6143485 30.391082,13.7349521 C29.9721358,13.9831145 28.4958743,14.8581317 27.7387762,15.3066472 C27.4161976,15.4978167 27.1863262,15.1443119 26.86621,14.7625132 C26.5046317,14.3315547 26.1803893,13.9452992 26.1803893,13.9452992 C26.1803893,13.9452992 26.2229162,12.8425128 26.3363212,11.8027293 L26.3363212,11.8027293 Z" id="picto" fill="#007DBC"></path>
    </g>
</svg>