<?xml version="1.0" encoding="UTF-8"?>
<svg width="55px" height="55px" viewBox="0 0 55 55" version="1.1" xmlns="http://www.w3.org/2000/svg" xmlns:xlink="http://www.w3.org/1999/xlink">
    <title>sports_picto/cross_country_skiing_02</title>
    <g id="sports_picto/cross_country_skiing_02" stroke="none" stroke-width="1" fill="none" fill-rule="evenodd">
        <path d="M38.9649309,15.7779714 C38.9849434,15.4309358 39.0048204,15.100558 39.0237475,14.8242161 C39.0857526,13.9161679 38.9161544,12.7024575 37.8646456,12.6121267 L36.8169357,16.6540585 C36.8169357,16.6540585 34.7023853,15.4943164 33.6508764,14.9463049 C33.2025945,14.7126907 32.5376338,14.4637054 31.8030023,14.2612397 C32.1192012,13.5962857 32.4713549,12.8551532 32.615242,12.5521996 C33.2225392,11.273619 32.6035736,9.77625358 31.4663838,9.23819609 C30.3283798,8.69993545 28.7650914,9.07270244 28.1491786,10.3688888 C27.9356884,10.8175634 27.8344043,11.2900058 27.8671028,11.7575051 C27.916015,12.4613948 29.2031297,14.4980365 29.2031297,14.4980365 C29.2031297,14.4980365 29.2036724,14.4983074 29.2038759,14.4983751 L29.5875749,15.1392905 L29.184406,15.1392905 L28.2524978,13.8946347 C27.7836605,13.9674276 27.233891,14.1161281 26.6769983,14.3728328 C24.325214,15.456261 24.6334757,16.9291138 24.6868652,17.3973579 C24.7730889,18.1534553 25.2805946,19.2144023 25.5574467,19.8299249 C25.8342988,20.4453798 26.4005533,21.681165 26.4005533,21.681165 L26.2924175,22.027862 L24.8484584,19.4482196 L23.0828732,25.9826455 L10,36.5485074 L10.0016281,36.5505389 L10.8979886,36.5505389 L22.4794428,27.1971684 L18.875481,33.9421857 C18.875481,33.9421857 11.7377032,42.3541248 11.1412602,43.081579 C10.5448851,43.809101 10.3379753,44.3817605 10.2824828,44.822648 L13.374665,44.822648 L15.1010391,41.2781452 C17.5734417,39.0236667 20.8654106,36.2895681 20.8654106,36.2895681 L26.4980383,30.4167782 L29.5712934,34.9578995 C29.5712934,34.9578995 29.2865041,41.3906186 29.232097,42.711656 C29.1695492,44.2310286 29.5418512,45.5178703 31.0187123,45.3858952 C31.0187123,45.3858952 32.0536006,38.1781188 32.2625456,36.7036408 C32.5579178,34.6187865 32.5221665,34.3094678 32.1280881,32.5648099 C31.8319018,31.2537265 30.7924005,26.6515946 30.7924005,26.6515946 L31.0976773,23.7685924 L32.6269103,19.8094075 L33.3380017,16.5017014 L33.6052884,16.6528396 L33.4461375,18.5470783 C33.4461375,18.5470783 36.7968553,18.9542441 37.6299216,19.0214844 C38.4945333,19.0913655 38.763109,19.0067904 38.8355614,17.9768565 C38.8467548,17.8179988 38.8588302,17.6261644 38.8715162,17.4142864 L45.4353058,40.2051451 L46,40.2051451 L38.9649309,15.7779714 Z M43.3709565,45.0362865 L43.6818639,45.0362865 C43.6818639,46.4668856 41.684472,47 40.4255784,47 L21.1592226,47 L20.1416333,46.3905717 L40.4255784,46.3905717 C41.3481248,46.3905717 43.0713104,45.9933598 43.0713104,45.0362865 L43.3709565,45.0362865 Z" id="picto" fill="#007DBC"></path>
    </g>
</svg>