<?xml version="1.0" encoding="UTF-8"?>
<svg width="55px" height="55px" viewBox="0 0 55 55" version="1.1" xmlns="http://www.w3.org/2000/svg" xmlns:xlink="http://www.w3.org/1999/xlink">
    <title>sports_picto/cross_country_skiing_01</title>
    <g id="sports_picto/cross_country_skiing_01" stroke="none" stroke-width="1" fill="none" fill-rule="evenodd">
        <path d="M49.9297412,45.5402174 C49.9297412,45.5402174 48.8651321,46.2439919 47.5788236,46.2439919 L22.6752179,46.2439919 L23.0404295,47.1655518 L46.7395777,47.1655518 C47.4459911,47.1655518 49.3436098,47.2163556 49.9228033,46.1132436 C50.0923519,45.7901503 49.9297412,45.5402174 49.9297412,45.5402174 L49.9297412,45.5402174 Z M35.3015584,45.1167501 C35.3015584,45.1167501 33.1473171,45.0657921 33.0434053,42.5506598 C32.8758835,38.4961508 32.5669543,33.2700719 32.5669543,33.2700719 L29.809432,27.7407895 L25.911218,33.3308205 C25.911218,33.3308205 19.8908796,40.3426626 17.7045216,42.8749095 L14.6546741,50 C14.6546741,50 13.3162928,49.1208408 13.9229259,47.7781263 C14.2093266,47.1441973 20.4855079,31.8080958 20.4855079,31.8080958 L21.067118,32.4027849 L19.9133302,36.125335 L20.1919355,36.1131544 L22.8604351,31.8494943 L25.5523207,23.709254 C25.5523207,23.709254 25.5248812,22.6936416 26.4990644,20.6468442 C26.8709019,19.865515 27.2771949,19.0416308 27.2771949,19.0416308 L24.5662107,18.5120847 L22.2517753,22.7013508 L23.2413153,23.1194988 C23.3990149,23.1862606 23.4722131,23.3667334 23.4048614,23.5228451 C23.3544256,23.6393313 23.2396783,23.709254 23.1190064,23.709254 C23.0782368,23.709254 23.0369216,23.7013135 22.9970874,23.6845845 L21.9298279,23.233441 C21.7679967,23.4958628 21.6112325,23.7421723 21.4625754,23.9651229 C20.9575935,23.7154213 20.7409611,23.2231107 20.684289,22.7071327 L5.18856315,16.1586146 C5.03078554,16.0918528 4.95766529,15.91138 5.02509495,15.7553454 C5.09244665,15.599465 5.27493548,15.5267671 5.43279105,15.593606 L20.6906032,22.0415959 C20.7266956,21.7356171 20.8027002,21.4566205 20.8891504,21.2561037 C21.0390548,20.9084951 22.3654313,18.0826041 22.3654313,18.0826041 L12.6016943,16.1774251 C12.433471,16.1445838 12.3239465,15.9830757 12.3570767,15.8166337 C12.3902848,15.6501917 12.5534412,15.5424168 12.7220543,15.5747184 L22.6355397,17.5091154 C22.9212388,16.9029396 23.1855007,16.3433275 23.3769541,15.938131 C23.6649139,15.3288715 23.7270427,15.2509313 24.3726525,14.6547774 C25.0835092,13.9984146 26.2039329,12.9655336 27.0536246,12.1899092 C28.3995674,10.9611369 30.0442275,11.1470833 30.8769253,11.281532 C31.7096232,11.4160579 35.4003253,12.0123659 36.5205151,12.1899092 C37.6407829,12.3675296 38.5819139,14.8984658 35.8869881,17.0380822 L33.5247673,22.275802 L35.8784133,32.1567066 L35.3015584,45.1167501 Z M33.7707881,11.0400793 C33.7707881,11.0400793 34.7996946,11.2185477 35.3943229,11.3185363 C35.8795826,11.4001769 36.1584217,11.2086028 36.1940464,10.8416441 C36.2778463,9.98144951 36.4350782,8.36397849 36.4815384,7.88762591 C36.6256742,6.40167414 35.4627659,5.13797913 34.128672,5.01147087 C32.7941104,4.8849626 31.3639,5.8145401 31.2174256,7.32122966 C31.1663662,7.84268117 31.2362904,8.34771204 31.4386573,8.79970349 C31.7430652,9.48065871 33.7707881,11.0400793 33.7707881,11.0400793 L33.7707881,11.0400793 Z M24.8626673,17.943684 L27.4201613,18.4427017 L27.5195519,16.1320178 L25.2934376,17.1047669 L24.8626673,17.943684 Z" id="picto" fill="#007DBC"></path>
    </g>
</svg>