<?xml version="1.0" encoding="UTF-8"?>
<svg width="55px" height="55px" viewBox="0 0 55 55" version="1.1" xmlns="http://www.w3.org/2000/svg" xmlns:xlink="http://www.w3.org/1999/xlink">
    <title>sports_picto/fence</title>
    <g id="sports_picto/fence" stroke="none" stroke-width="1" fill="none" fill-rule="evenodd">
        <path d="M36.2593983,21.5144977 C36.2593983,21.2622709 36.0539322,21.057744 35.8003462,21.057744 C35.8001723,21.057744 35.7999984,21.0578016 35.7998245,21.0578016 L34.674573,21.0560136 L25.7640474,22.3239536 C25.7640474,22.3239536 25.6570821,22.2629877 25.4824012,22.1633775 L25.862954,22.0705732 C29.0054718,19.0405642 25.702767,16 25.702767,16 L23.0233595,16.2871221 C23.0233595,16.2871221 22.5216374,16.3412243 22.2875892,16.9639181 C22.0535411,17.586612 21.3228147,19.4976639 21.3228147,19.4976639 L22.5524225,19.3888252 L23.562592,21.0686452 C23.1165266,20.8142843 22.7393363,20.5992023 22.5956724,20.5171838 C22.20451,20.2940269 21.7396024,20.3034861 21.2895946,20.4890369 C20.9976287,20.609469 15.7660705,22.7666915 15.5673296,22.8586305 C15.1918786,23.0324149 14.9846153,23.242652 14.8985793,23.6289806 C14.8244283,23.9619569 14.2551064,26.4667482 14.057467,27.4747902 C13.8593639,28.4850816 14.3183579,29.0393114 14.6689953,29.1318273 L16.8402453,24.397485 L20.3327627,23.3247858 L20.2908463,23.5951235 L19.189075,24.03094 L18.497946,28.6433506 C17.0673363,29.1803923 16.3708736,30.9899306 16.3708736,30.9899306 L12.4021433,34.5454457 C12.4021433,34.5454457 6.66521045,37.8620578 5.60408021,38.479503 C4.54294997,39.0968905 5.20265609,39.9609099 5.20265609,39.9609099 L15.5675035,36.0769751 L20.1018453,32.9398576 L26.3131937,31.8212465 C26.3131937,31.8212465 28.1793173,37.4534077 28.6022505,38.7113693 C29.0251836,39.9693886 30.0065392,40.08636 30.4532424,39.9609099 C30.4532424,39.9609099 28.9832671,29.8818746 28.933408,29.5108884 C28.8682432,29.0254687 28.6151211,28.8145971 28.2228571,28.8145971 C27.9329783,28.8145971 23.6376127,28.823941 23.6376127,28.823941 L22.8813769,29.873569 L22.5801929,29.8798559 L25.0759911,25.5994411 L35.3661658,21.9725203 L35.8003462,21.9725203 L35.8003462,21.9712514 C36.0539322,21.9712514 36.2593983,21.7666668 36.2593983,21.5144977 M50,21.5144977 C50,21.6419088 49.8961654,21.7452105 49.768097,21.7452105 L37.4470316,21.7452105 C37.3419795,22.1933701 36.9389321,22.5274999 36.4564579,22.5274999 C36.2104667,22.5274999 35.9848251,22.4406943 35.8088107,22.2962104 C35.8916581,22.3238382 35.9800711,22.339469 36.0722525,22.339469 C36.5544949,22.339469 36.9405554,21.9300114 36.8983491,21.4414194 C36.8671001,21.0803538 36.592469,20.7768511 36.2352224,20.7057339 C36.0838477,20.6756259 35.9394301,20.6891226 35.8088107,20.732785 C36.0109142,20.5667871 36.2785303,20.4769821 36.5673075,20.5073209 C36.9984732,20.5525983 37.350444,20.8739235 37.4477273,21.2837849 L49.768097,21.2837849 C49.8961654,21.2837849 50,21.3870865 50,21.5144977" id="picto" fill="#007DBC"></path>
    </g>
</svg>