<?xml version="1.0" encoding="UTF-8"?>
<svg width="55px" height="55px" viewBox="0 0 55 55" version="1.1" xmlns="http://www.w3.org/2000/svg" xmlns:xlink="http://www.w3.org/1999/xlink">
    <title>sports_picto/field_hockey</title>
    <g id="sports_picto/field_hockey" stroke="none" stroke-width="1" fill="none" fill-rule="evenodd">
        <path d="M45.2380732,41.4162284 C45.2380732,42.3220117 44.7602885,42.7732926 44.4755232,42.9616765 C44.1278766,43.1916589 43.7784656,43.2840301 43.4487447,43.2840301 C42.7727182,43.2840301 42.1795452,42.8956371 41.8546234,42.5097653 L32.241764,32.4341688 C32.2872135,32.43697 32.3327336,32.4389309 32.3783949,32.4389309 C32.4301961,32.4389309 32.4821384,32.4370401 32.5341513,32.4333984 C33.0871677,32.394251 33.5268426,32.153974 33.8225469,31.9318351 C33.8225469,31.9318351 42.8439271,41.3914373 42.9962254,41.550128 C43.1485943,41.7087486 43.371537,41.9079173 43.6457162,41.7266066 C43.7295579,41.6710718 43.7421201,41.5083194 43.7421201,41.4162284 C43.7421201,41.0062658 44.0769928,40.6739678 44.4900614,40.6739678 C44.9032005,40.6739678 45.2380732,41.0062658 45.2380732,41.4162284 L45.2380732,41.4162284 Z M33.4451181,31.5141691 C33.4451181,31.5141691 32.4526386,32.1730225 31.5698307,31.7178198 C30.3856021,31.1072179 26.7269849,28.1361449 26.7269849,28.1361449 L25.9481323,29.317571 C25.9481323,29.317571 29.9837548,33.793404 30.190042,34.0639345 C30.5570965,34.5449787 30.6723435,35.2613277 30.3005606,36.0033781 C30.0582102,36.4869434 24.0425687,48 24.0425687,48 C22.272648,47.7263181 22.4286867,45.4913429 22.8619394,44.4216166 C23.2952626,43.3518202 26.3955703,35.6784334 26.3955703,35.6784334 C26.3849842,35.673041 21.9219667,33.3786794 20.19559,31.8961892 L19.9816102,32.3163763 L22.0497759,34.1675106 C22.0497759,34.1675106 19.895369,37.0008322 19.59416,37.3990296 C19.3940126,37.6637474 19.0098088,38.0189456 18.550585,38.2907366 C18.0912906,38.5625276 7.36364721,44.2926192 7.36364721,44.2926192 C6.61457673,43.4871205 7.09102056,42.0653474 8.1698119,41.2798076 L15.9619374,35.3752684 L18.6923678,29.7876904 C18.2574919,27.5519448 20.2938288,25.3587782 20.579441,25.1107978 L22.6665205,20.3652747 C22.9925009,21.6996489 23.6832774,23.2030783 24.2190738,24.4270834 L24.4614949,23.8653632 C24.2686166,23.4488878 23.8650756,22.312982 23.5237806,21.1329565 C23.1308256,19.7741415 22.9235503,18.8766218 23.0053453,18.4016703 C23.4632283,15.741886 26.0716365,15.0326102 27.604782,15.4520969 C29.2783695,15.9099608 31.4430801,16.4764431 32.0146575,16.651381 C33.2293034,17.0231765 33.5039061,18.1383531 32.6761458,19.6182521 C32.2946238,20.3003558 31.6390636,21.4272276 31.6390636,21.4272276 L31.6289716,21.441724 L32.0387937,29.0744227 L29.8841046,26.7177334 L29.5251661,24.4547457 L28.410735,26.0507564 L33.4451181,31.5141691 Z M27.7374608,11.578322 C27.6606059,11.0088985 27.7476234,10.4230876 27.97473,9.85695552 C28.6297961,8.22284788 30.5247031,7.6434799 31.968361,8.2134637 C33.4107487,8.78302732 34.2918628,10.5670017 33.6451949,12.1798899 C33.4380607,12.69658 32.665348,14.6354633 32.2910951,15.568979 C32.1315277,15.9670362 31.7195178,15.8101664 31.1681245,15.6638012 C30.5565319,15.5012588 29.7275718,15.2470456 29.7275718,15.2470456 C29.7275718,15.2470456 27.8534136,12.4365542 27.7374608,11.578322 L27.7374608,11.578322 Z M47.959329,38.3460613 C47.9380863,38.347812 47.9174787,38.3402487 47.901529,38.3261724 C47.8855794,38.3120961 47.8761225,38.2926975 47.8748521,38.271478 C47.8735818,38.2503286 47.8806392,38.2299496 47.8948245,38.2140525 C47.9089393,38.1982254 47.9284882,38.1888413 47.949731,38.1875107 C47.9513541,38.1874406 47.9529773,38.1873706 47.95453,38.1873706 C47.9964508,38.1873706 48.0318083,38.2199351 48.0344195,38.2620238 C48.0370308,38.3057233 48.0033671,38.3434001 47.959329,38.3460613 L47.959329,38.3460613 Z M47.9407681,38.0393247 C47.8795806,38.0430363 47.8234744,38.0701384 47.7828239,38.1156587 C47.7421734,38.1611789 47.7218481,38.219725 47.7255179,38.280372 C47.7291172,38.341089 47.7563587,38.3967638 47.8022317,38.4371718 C47.844576,38.4744984 47.8980709,38.4946674 47.9543182,38.4946674 C47.9589055,38.4946674 47.9635634,38.4945274 47.9682213,38.4942472 C48.094619,38.4866839 48.1913051,38.3785557 48.1837537,38.2531999 L48.1837537,38.2531299 C48.1760612,38.127704 48.0670952,38.0320414 47.9407681,38.0393247 L47.9407681,38.0393247 Z M47.4310134,38.2183944 C47.4326366,38.2182543 47.4342598,38.2182543 47.435883,38.2182543 C47.4778744,38.2182543 47.5132319,38.2508188 47.5157726,38.2928376 C47.5184544,38.336537 47.4847201,38.3742838 47.440682,38.376875 C47.396644,38.3796762 47.3586752,38.3460613 47.3559934,38.3024318 C47.3534528,38.2587324 47.3871165,38.2210556 47.4310134,38.2183944 L47.4310134,38.2183944 Z M47.4358124,38.5254812 C47.4403997,38.5254812 47.444987,38.5253411 47.4496449,38.525061 C47.575972,38.5174976 47.6727287,38.4094395 47.6651068,38.2840136 L47.6651068,38.2840136 C47.6575554,38.1586578 47.5485188,38.0626451 47.4220505,38.0702084 C47.2958646,38.0777718 47.199249,38.1858299 47.2067298,38.3113258 C47.2140695,38.4320596 47.3154841,38.5254812 47.4358124,38.5254812 L47.4358124,38.5254812 Z M46.9771532,38.3811469 C46.9629679,38.3969739 46.9434189,38.4064281 46.9220351,38.4076887 C46.877997,38.4104899 46.8400283,38.376875 46.8373465,38.3333856 C46.8348058,38.2896161 46.8684695,38.2517993 46.9123664,38.2492081 C46.9139896,38.2491381 46.9156128,38.2490681 46.9171655,38.2490681 C46.9592275,38.2490681 46.9946555,38.2816326 46.9971962,38.3237213 L46.9971962,38.3237213 C46.9984665,38.3448707 46.9913385,38.3652498 46.9771532,38.3811469 L46.9771532,38.3811469 Z M46.9034036,38.1010221 C46.7772882,38.1085155 46.6806726,38.2166436 46.6880123,38.3422095 C46.6954931,38.4629433 46.7968371,38.5562949 46.9171655,38.5562949 C46.9216822,38.5562949 46.9263401,38.5561548 46.9309274,38.5558747 C46.9921854,38.5523031 47.0482916,38.525201 47.0890833,38.4796808 C47.1297338,38.4340905 47.1501296,38.3756144 47.1465304,38.3148974 C47.138979,38.1894715 47.0299424,38.0935988 46.9034036,38.1010221 L46.9034036,38.1010221 Z M47.5622807,39.06199 C47.5648919,39.1056895 47.5312282,39.1433663 47.4871902,39.1459574 C47.4657357,39.147288 47.4452693,39.1401449 47.4292491,39.1260686 C47.4132994,39.1120623 47.4037719,39.0926637 47.4025016,39.0715143 C47.3998904,39.0278148 47.4335541,38.9901381 47.4775216,38.9874769 C47.4792153,38.9874068 47.4808385,38.9873368 47.4824617,38.9873368 C47.5020107,38.9873368 47.5207127,38.9943399 47.5354627,39.0074358 C47.5514829,39.021442 47.5610104,39.0408406 47.5622807,39.06192 L47.5622807,39.06199 Z M47.4685587,38.8392909 C47.3423021,38.8468543 47.2456866,38.9549824 47.253238,39.0803382 C47.2568372,39.1410553 47.2840787,39.19673 47.3300223,39.237138 C47.3723666,39.2744647 47.4258615,39.2945636 47.4821089,39.2945636 C47.4867667,39.2945636 47.4914246,39.2944235 47.4960825,39.2941434 C47.6224802,39.2866501 47.7190957,39.178592 47.7116149,39.0531661 C47.7080156,38.9924491 47.680633,38.9367043 47.6346894,38.8962963 C47.5888165,38.8558883 47.5298167,38.8356493 47.4685587,38.8392909 L47.4685587,38.8392909 Z M47.329246,37.4699711 C47.3435019,37.4540741 47.3630508,37.4446899 47.3844347,37.4434293 C47.3860579,37.4432893 47.3876811,37.4432192 47.3893043,37.4432192 C47.4089238,37.4432192 47.4275553,37.4502224 47.4423052,37.4632482 C47.4582549,37.4773244 47.4677824,37.496653 47.4689821,37.5178024 L47.4689821,37.5178725 C47.4715934,37.5615019 47.4379296,37.5991787 47.3938916,37.6018399 C47.3725783,37.6029604 47.3520413,37.5960273 47.3360916,37.582021 C47.3200714,37.5678747 47.3105439,37.5484761 47.3092736,37.5272567 C47.3080032,37.5061773 47.3151312,37.4857982 47.329246,37.4699711 L47.329246,37.4699711 Z M47.3888103,37.750446 C47.3934681,37.750446 47.398126,37.750306 47.4028545,37.7500259 C47.5291816,37.7424625 47.6258677,37.6344044 47.6183869,37.5090485 C47.614717,37.4483315 47.5874756,37.3925867 47.5416026,37.3522487 C47.4957296,37.3118407 47.4367299,37.2916718 47.3754718,37.2951733 C47.3142137,37.2988149 47.2581076,37.325917 47.2173865,37.3713672 C47.1766654,37.4169575 47.1562695,37.4755036 47.1599394,37.5361506 C47.1636092,37.5968677 47.1909213,37.6526125 47.2367943,37.6929504 C47.2791386,37.7303471 47.3326335,37.750446 47.3888103,37.750446 L47.3888103,37.750446 Z M48.2703478,39.0319467 C48.2563036,39.0476337 48.2410597,39.06185 48.2262392,39.0766266 C48.2295561,39.0590487 48.231391,39.0409807 48.2302619,39.0223524 L48.2302619,39.0222123 C48.2226399,38.8968565 48.1134622,38.801264 47.9872056,38.8084772 C47.8609491,38.8160405 47.7643335,38.9241687 47.7718849,39.0494545 C47.7755548,39.1101715 47.8027257,39.1659163 47.8485987,39.2062543 C47.8860734,39.239309 47.9325109,39.2579373 47.9815597,39.2619991 C47.8363188,39.3430252 47.6739285,39.392047 47.5027164,39.4022716 C47.3313632,39.4125662 47.1641738,39.383083 47.0101112,39.3197048 C47.119924,39.2971548 47.1998136,39.1982007 47.1929679,39.0839798 C47.1892981,39.0232628 47.161986,38.967518 47.1159719,38.92711 C47.0700989,38.886772 47.0110992,38.8668832 46.9499117,38.8701746 C46.8887242,38.8738163 46.832618,38.9009183 46.7919675,38.9464386 C46.751317,38.9919589 46.7309212,39.0505049 46.7346616,39.1111519 C46.7357908,39.1297102 46.7397429,39.1474981 46.7451065,39.1647958 C46.7286628,39.1518401 46.7117251,39.1395146 46.695846,39.1255083 C46.5297858,38.9792832 46.4140447,38.7917397 46.3584326,38.583467 C46.3714887,38.585778 46.3848272,38.5871086 46.3982362,38.5871086 C46.4028941,38.5871086 46.4076225,38.5869685 46.412351,38.5866884 C46.4735385,38.5830468 46.5296446,38.5559447 46.5703657,38.5104945 C46.6111574,38.4649042 46.6315532,38.4064281 46.6278128,38.3457111 C46.624143,38.2849941 46.5968309,38.2292492 46.5509579,38.1889113 C46.505085,38.1484333 46.4460147,38.1281942 46.3848977,38.1319059 C46.366478,38.1329564 46.3488345,38.1368081 46.3316145,38.1419904 C46.361679,37.9284653 46.4541307,37.7283162 46.6015594,37.5633227 C46.6148272,37.5484761 46.6292949,37.5351001 46.6432685,37.5210239 C46.6411513,37.5360806 46.640375,37.5514874 46.641363,37.5670344 C46.6450328,37.6277514 46.6722743,37.6834262 46.7181473,37.7237642 C46.7604916,37.7610908 46.8139865,37.7812598 46.8701633,37.7812598 C46.8748212,37.7812598 46.879479,37.7811197 46.8841369,37.7808396 C47.0105346,37.7733462 47.1072913,37.6652181 47.0996693,37.5397922 L47.0996693,37.5397922 C47.0960701,37.4790752 47.068758,37.4233304 47.0228145,37.3829924 C46.9880921,37.3524588 46.9458184,37.3334103 46.9008629,37.3275978 C47.043422,37.2500032 47.2021425,37.2029422 47.3693319,37.1929978 C47.3921272,37.1916672 47.414852,37.1910369 47.4375768,37.1910369 C47.5812651,37.1910369 47.7212129,37.2188393 47.8517745,37.2710126 C47.8072424,37.2820075 47.7670859,37.3058181 47.7360334,37.3405535 C47.6953123,37.3861438 47.6749165,37.4446899 47.6786569,37.5053369 C47.6823268,37.5660539 47.7095683,37.6217287 47.7553707,37.6621367 C47.797715,37.6994633 47.8512805,37.7195623 47.9073867,37.7195623 C47.9120445,37.7195623 47.916773,37.7194222 47.9214309,37.7192121 C47.9826889,37.7155705 48.0387951,37.6884684 48.0795162,37.6429482 C48.1202373,37.5973579 48.1406331,37.5388818 48.1369633,37.4780948 C48.1360458,37.4624078 48.133364,37.447071 48.1293413,37.4322243 C48.1449381,37.4446199 48.1609584,37.4565252 48.1759906,37.4697611 C48.3422625,37.6160562 48.4580036,37.8038098 48.5136157,38.0122226 C48.4959017,38.0090712 48.4778348,38.0073204 48.459415,38.008511 C48.3330879,38.0160743 48.2365429,38.1242025 48.2440943,38.2496283 C48.251434,38.3703621 48.352778,38.4637837 48.4730358,38.4637837 C48.4776231,38.4637837 48.482281,38.4636436 48.4868683,38.4633635 C48.505288,38.462243 48.5230726,38.4583913 48.5402926,38.4531389 C48.5102282,38.666734 48.4178471,38.8669532 48.2703478,39.0319467 L48.2703478,39.0319467 Z M48.005696,39.1151437 C47.9844533,39.1166144 47.9639163,39.1094012 47.947896,39.0952549 C47.9319463,39.0812486 47.9224895,39.06185 47.9212897,39.0406305 C47.9186079,38.9970011 47.952201,38.9592543 47.9961685,38.9566631 C47.9977917,38.9565231 47.9994149,38.9564531 48.0009675,38.9564531 C48.042959,38.9564531 48.0783164,38.9890176 48.0809277,39.0311063 C48.0835389,39.0748058 48.0498046,39.1124825 48.005696,39.1151437 L48.005696,39.1151437 Z M46.8839958,39.102258 C46.8827254,39.0811086 46.8897828,39.0607295 46.9038976,39.0448324 C46.9180829,39.0290054 46.9376319,39.0196212 46.9588746,39.0183606 C46.9604978,39.0182206 46.962121,39.0181505 46.9637442,39.0181505 C46.9832931,39.0181505 47.0019952,39.0252237 47.0168157,39.0382495 C47.0328359,39.0523257 47.0423634,39.0717244 47.0436337,39.0928038 L47.0436337,39.0928738 C47.046245,39.1365032 47.0125107,39.17418 46.968402,39.1767712 C46.9471593,39.1781718 46.9266223,39.1710286 46.9106727,39.1569523 C46.894723,39.1429461 46.8852661,39.1235475 46.8839958,39.102258 L46.8839958,39.102258 Z M46.3256157,38.3899008 C46.3248394,38.3811469 46.3232868,38.3726031 46.3227928,38.3637791 C46.3222282,38.3549552 46.3227928,38.3462714 46.3224399,38.3375175 C46.3256863,38.3262424 46.3307676,38.3155977 46.338813,38.3066337 C46.3529278,38.2907366 46.3724768,38.2813524 46.39379,38.2800919 C46.3954838,38.2799518 46.397107,38.2798818 46.3987302,38.2798818 C46.4182792,38.2798818 46.4369106,38.2868849 46.4517311,38.2999107 C46.4676808,38.313987 46.4772083,38.3334556 46.4784786,38.354535 L46.4784786,38.3546051 C46.4798195,38.3757545 46.4726916,38.3960635 46.4585062,38.4118906 C46.4443209,38.4277876 46.4247719,38.4371718 46.4033881,38.4385024 C46.3820748,38.439903 46.3615378,38.4326898 46.3455881,38.4186836 C46.3364841,38.4107 46.330203,38.4006856 46.3256157,38.3899008 L46.3256157,38.3899008 Z M46.8706573,37.474103 C46.8902063,37.474103 46.9088377,37.4811061 46.9235877,37.4940619 C46.9396079,37.5081381 46.9491354,37.5275368 46.9504057,37.5486162 C46.953017,37.5923156 46.9192827,37.6300624 46.8752446,37.6326536 C46.8539313,37.6337741 46.8333943,37.626841 46.8173741,37.6127647 C46.8014244,37.5986885 46.7919675,37.5792898 46.7906972,37.5581404 C46.7893563,37.536921 46.7964842,37.5166119 46.810599,37.5007849 C46.8247843,37.4848878 46.8443333,37.4755036 46.8657171,37.4742431 C46.8673403,37.474103 46.8689635,37.474103 46.8706573,37.474103 L46.8706573,37.474103 Z M47.9876291,37.4869887 C47.9888994,37.5081381 47.9817715,37.5285172 47.9675861,37.5444143 C47.9534008,37.5602413 47.9338518,37.5696956 47.9125386,37.5709561 C47.8911547,37.5722867 47.8706883,37.5652136 47.8547386,37.5511373 C47.8387889,37.537061 47.8292614,37.5176624 47.8279911,37.4964429 C47.8267208,37.4752935 47.8337782,37.4549144 47.8479635,37.4390874 C47.8621488,37.4231903 47.8816272,37.4138061 47.9029405,37.4125456 C47.9045637,37.4124755 47.9061869,37.4124055 47.9078101,37.4124055 C47.9273591,37.4124055 47.9460611,37.4194086 47.9608816,37.4324344 C47.9768313,37.4464407 47.9863588,37.4658393 47.9876291,37.4869887 Z M48.5462914,38.2055087 C48.5469972,38.2141925 48.5486203,38.2226663 48.5491849,38.2314202 L48.5491849,38.2314902 C48.549679,38.2401741 48.5491144,38.2487879 48.5493967,38.2575418 C48.5462208,38.2688169 48.5411395,38.2795316 48.5330235,38.2885657 C48.5188382,38.3044627 48.4992893,38.3139169 48.477976,38.3151775 C48.4342202,38.3178387 48.3961103,38.2843638 48.393358,38.2407344 C48.3907467,38.1970349 48.4244104,38.1592881 48.4683073,38.1566969 C48.4700011,38.1566269 48.4716243,38.1565569 48.4732475,38.1565569 C48.4927965,38.1565569 48.5114279,38.16356 48.5262484,38.1765858 C48.535423,38.1846394 48.5417041,38.1946538 48.5462914,38.2055087 L48.5462914,38.2055087 Z M48.9971169,38.2048084 C48.9721338,37.7910641 48.786313,37.4116352 48.4738121,37.1366227 C48.1612407,36.8614702 47.7595345,36.7236488 47.3424433,36.7485099 C46.925352,36.7732309 46.5429831,36.957693 46.2658397,37.2678612 C45.9886258,37.5779592 45.8497365,37.9766468 45.8747902,38.390391 C45.8997028,38.8042053 46.0855236,39.1836342 46.398095,39.4586467 C46.6866008,39.7126498 47.0513263,39.8496308 47.4339069,39.8496308 C47.4655946,39.8496308 47.4975645,39.8487204 47.5295345,39.8467595 C47.9465551,39.8219685 48.3289241,39.6375763 48.6060674,39.3274082 C48.8832814,39.0173102 49.0221706,38.6186226 48.9971169,38.2048084 L48.9971169,38.2048084 Z" id="picto" fill="#007DBC"></path>
    </g>
</svg>