<?xml version="1.0" encoding="UTF-8"?>
<svg width="55px" height="55px" viewBox="0 0 55 55" version="1.1" xmlns="http://www.w3.org/2000/svg" xmlns:xlink="http://www.w3.org/1999/xlink">
    <title>sports_picto/figure_skating</title>
    <g id="sports_picto/figure_skating" stroke="none" stroke-width="1" fill="none" fill-rule="evenodd">
        <path d="M6.35238864,38.5051402 C6.27498944,38.7150201 6.04264496,38.8222069 5.83343213,38.7445609 C5.47221138,38.6104116 5.1728953,38.350364 4.96919,38.0073662 C4.84780396,37.8029378 4.76034433,37.5690422 4.71386075,37.314667 C4.64072071,36.9141346 4.03085318,32.9732704 4.03085318,32.9732704 C3.83250855,31.7106026 4.65401222,31.1953693 4.68911357,31.1740793 L4.73434877,31.1470432 C4.92601093,31.0324896 5.17392337,31.0955493 5.28803946,31.2877488 C5.40222898,31.4800221 5.33936967,31.7287249 5.14778094,31.8432048 L5.11231243,31.8644211 C5.06046818,31.9004448 4.7215713,32.1648388 4.82878461,32.8470773 C4.82878461,32.8470773 5.44518775,36.7686405 5.50841423,37.1685835 C5.5320599,37.317982 5.65946751,37.815977 6.11372886,37.9845292 C6.32286826,38.0621751 6.42993471,38.295334 6.35238864,38.5051402 L6.35238864,38.5051402 Z M28.6438729,47.4163039 C28.7112116,47.6296462 28.5933504,47.8573536 28.3806862,47.9249071 C28.0134439,48.0414497 27.6180764,48.0204544 27.2473827,47.8750339 C27.0264205,47.7884005 26.8142703,47.65764 26.6218738,47.4854044 C26.3191063,47.2142329 23.4264764,44.4785755 23.4264764,44.4785755 C22.4973188,43.6038428 22.8306347,42.6912449 22.8453214,42.6528639 L22.8644877,42.6036538 C22.9457054,42.3952473 23.1800326,42.2924069 23.3877033,42.3738099 C23.5954475,42.4552866 23.6980345,42.6902872 23.6168167,42.8986937 L23.6017628,42.9372957 C23.5829637,42.9976297 23.4771457,43.415032 23.9792858,43.8876116 C23.9792858,43.8876116 26.8652333,46.6040417 27.1598496,46.880812 C27.2699269,46.9842417 27.6752079,47.298951 28.1369595,47.1522045 C28.3495503,47.0847984 28.5767544,47.2029617 28.6438729,47.4163039 L28.6438729,47.4163039 Z M45.5519268,19.2291978 L31.5230644,13.5926459 L26.6407463,12.2826096 L18.1719224,8 C18.1719224,8 17.5658734,9.36668686 19.2996449,10.4887226 C21.2442448,11.7471913 24.6719132,13.8722892 24.6719132,13.8722892 L31.0325268,16.790864 L30.3936529,20.9572257 L29.0158884,22.1418792 C29.2881808,22.7075013 29.927275,23.9713478 30.5101189,24.6484295 L29.8863724,24.5649637 C29.8863724,24.5649637 29.0416636,23.4385079 28.6689872,22.4400869 L28.6641406,22.4442859 L28.0088176,22.4155554 C27.5309105,22.3160301 27.0298719,22.3021069 26.5139261,22.4108407 L19.8757329,23.9493211 L21.0941461,25.9600864 C18.7419888,27.7618559 16.276156,29.7233373 16.276156,29.7233373 C16.276156,29.7233373 12.6709246,30.9833531 7.80439473,32.6566457 C6.351434,33.1562614 6.03779833,34.8979916 6.10829476,35.1100078 L16.9906666,32.9920557 L24.1551597,29.8394379 C25.5006869,31.1108722 29.2343539,32.8471509 32.5183124,32.6282836 L32.0518611,33.112208 C32.0518611,33.112208 30.8189079,33.1821925 29.8467181,32.9595681 L30.9582852,34.4114888 C30.9582852,34.4114888 28.8616774,38.1130797 26.6925905,41.9104388 C25.9636134,43.1865879 25.6746515,44.3442789 26.8309398,45.4042126 C26.8309398,45.4042126 33.2460412,36.8859935 33.8802887,36.063565 C34.5688772,35.1707838 34.6199137,34.6084767 34.442204,33.7839119 C34.3212585,33.2227099 33.0642191,27.389391 33.0642191,27.389391 C33.0642191,27.389391 37.8170001,23.8486907 38.6170611,19.6471158 L38.8432372,17.9610786 L39.2096717,18.084325 L39.2228164,19.8477135 C41.9110801,20.7087439 45.1738163,21.1649692 45.1738163,21.1649692 C45.1738163,21.1649692 49.3497015,20.8180671 50.0087697,20.7527236 C50.7357641,20.6806764 51.9188557,20.4723436 52,19.1986993 L45.5519268,19.2291978 Z M32.328633,11.2645929 C32.328633,10.4203588 33.0108328,9.73598404 33.8523839,9.73598404 C33.9529147,9.73598404 34.0510222,9.74637121 34.1461924,9.76500919 C34.5655727,9.23614734 35.1676563,8.85926237 35.8203357,8.73174324 C37.1896553,8.46418143 38.7287539,9.39902707 39.0288778,10.9465686 C39.1252229,11.4424272 39.4002324,12.8315091 39.5737564,13.7276791 C39.6560022,14.1511959 39.4526641,14.5554116 38.913807,14.7003164 C38.2236029,14.8859595 37.5561633,15.0651935 37.5561633,15.0651935 C37.5561633,15.0651935 34.7747856,13.9653318 34.2672847,13.3659697 C34.1194625,13.1913032 33.9953594,12.9980723 33.892185,12.7912128 C33.87882,12.7915811 33.8658223,12.7932018 33.8523839,12.7932018 C33.0108328,12.7932018 32.328633,12.1088271 32.328633,11.2645929 L32.328633,11.2645929 Z" id="picto" fill="#007DBC"></path>
    </g>
</svg>