<?xml version="1.0" encoding="UTF-8"?>
<svg width="55px" height="55px" viewBox="0 0 55 55" version="1.1" xmlns="http://www.w3.org/2000/svg" xmlns:xlink="http://www.w3.org/1999/xlink">
    <title>sports_picto/hydrid_bike</title>
    <g id="sports_picto/hydrid_bike" stroke="none" stroke-width="1" fill="none" fill-rule="evenodd">
        <path d="M27.3450256,21.9680582 C27.3450256,21.9680582 29.902776,23.8086981 31.3792697,24.8292291 C32.4780895,25.5887375 33.8874338,24.6701862 33.8874338,24.6701862 L29.1115095,20.7293521 L27.3450256,21.9680582 Z M45.6904699,39.5485419 C45.6420061,37.9607155 44.9847083,36.4870823 43.8397357,35.3990098 C42.7401235,34.353985 41.3168475,33.7848209 39.8144713,33.7848209 C39.752472,33.7848209 39.6906048,33.7857552 39.6283414,33.7877575 C38.903366,33.8103158 38.2131207,33.9660884 37.5787341,34.2297807 C38.4170778,36.1687963 39.2118437,37.7126406 39.7012351,38.6167092 C39.7145065,38.6158415 39.7275138,38.6138393 39.7409173,38.6134389 C40.3737192,38.5936837 40.9025287,39.0962406 40.9220726,39.7358828 C40.9416166,40.3755918 40.444434,40.9101175 39.8116321,40.9298728 C39.1788302,40.9495612 38.6499547,40.4470043 38.6304107,39.8073621 C38.6224215,39.544137 38.7029083,39.2994658 38.8433475,39.1004453 C38.3472873,38.1841631 37.5477675,36.6310419 36.7035475,34.6846181 C34.9840087,35.7699542 33.8622115,37.7237195 33.9290968,39.9153484 C33.9775606,41.5031748 34.6347924,42.9767412 35.779831,44.0648805 C36.9247376,45.152953 38.4180022,45.7264553 39.9912253,45.6761996 C41.5620054,45.6272119 43.0198795,44.9628089 44.0963822,43.8055264 C45.1728189,42.6481771 45.7389336,41.1363683 45.6904699,39.5485419 L45.6904699,39.5485419 Z M34.8538036,29.964854 L34.6096361,29.3097947 L30.5747318,29.8273016 C30.5144492,30.8667202 30.3979778,32.8371706 30.2995977,34.4977443 L34.8538036,29.964854 Z M28.7087454,36.0810991 C28.7087454,36.0810991 28.2299843,31.2768414 28.1055896,30.1439859 L24.1967966,30.6452748 C24.2808489,31.0315028 24.3441687,31.3280982 24.3652313,31.4379533 C24.5203285,32.2471835 24.4787315,32.7220431 24.0772219,33.9596813 L25.8778417,38.8987551 L28.7087454,36.0810991 Z M24.97565,39.2957951 L23.5805675,35.4691542 L22.3662006,39.2957951 L24.97565,39.2957951 Z M22.5897017,26.6340961 L22.6114906,26.9797458 L23.5138143,27.5880199 L23.9829355,29.6716625 L27.5683286,29.2118195 L22.5897017,26.6340961 Z M21.7269941,32.5417766 L21.5454201,32.1510769 L19.9379951,34.2807038 C20.3764137,34.67127 20.767293,35.1149617 21.1011251,35.6014342 L21.7269941,32.5417766 Z M20.9195511,41.0789713 C20.7071425,40.8949007 20.509524,40.637482 20.428707,40.2889625 L16.1953918,40.2889625 C16.0004804,40.6475599 15.6235328,40.8907627 15.1901982,40.8907627 C14.5570662,40.8907627 14.043773,40.3719878 14.043773,39.7320119 C14.043773,39.092036 14.5570662,38.573261 15.1901982,38.573261 C15.2762973,38.573261 15.3599534,38.5836726 15.4407043,38.601826 L18.3641777,34.7285334 C17.4477242,34.1324061 16.3586104,33.7848876 15.1901982,33.7848876 C11.9460321,33.7848876 9.3066725,36.4527109 9.3066725,39.7320119 C9.3066725,43.0113129 11.9460321,45.6790694 15.1901982,45.6790694 C17.9759395,45.6790694 20.3141503,43.7113553 20.9195511,41.0789713 L20.9195511,41.0789713 Z M19.1444177,35.332069 L16.2144736,39.2139711 C16.2278111,39.2408008 16.2405542,39.2678308 16.2518448,39.2957951 L20.4487792,39.2957951 C20.5052982,38.8643169 20.5981981,38.2985566 20.7089913,37.677268 C20.3787247,36.7721316 19.8378983,35.9693753 19.1444177,35.332069 L19.1444177,35.332069 Z M45.0483582,44.7101289 C43.7329041,46.1245631 41.951168,46.9364629 40.0315017,46.996396 C39.9555708,46.9987987 39.8797058,47 39.804105,47 C37.9678307,47 36.2286819,46.3043624 34.8847703,45.0271469 C33.485528,43.6974066 32.6822447,41.8964773 32.6230846,39.9560602 C32.5390323,37.2043439 33.9873325,34.7577658 36.1869529,33.4555226 C36.0255832,33.0583491 35.2342507,30.9799791 35.2342507,30.9799791 L30.2117819,35.9789192 C30.1639124,36.785146 30.1316252,37.328081 30.1316252,37.328081 C30.1316252,37.328081 29.6432242,37.268148 29.2339894,36.9521311 C29.2339894,36.9521311 26.1105866,40.0595749 26.0248836,40.1462042 C25.9188444,40.2533897 25.8415929,40.2889625 25.6788366,40.2889625 L22.3570889,40.2889625 C22.0744277,44.0369829 18.9691822,47 15.1901982,47 C11.2255465,47 8,43.7395199 8,39.7320119 C8,35.7245039 11.2255465,32.4640238 15.1901982,32.4640238 C16.6563257,32.4640238 18.0207057,32.9108523 19.1589436,33.6754997 L21.0743181,31.1378207 L19.1168184,26.9265535 C18.7481242,26.4950086 17.611603,24.9569707 18.335588,23.1165978 C19.191957,20.9397853 24.6972806,15.4843393 25.3844226,14.7897695 C26.057765,14.1090818 27.2891669,13.9624526 28.2596303,14.816666 C29.39252,15.8137043 38.3696705,23.7106561 38.3696705,23.7106561 C38.3696705,23.7106561 36.8525702,24.6085179 35.850876,23.8504778 C34.6567133,22.9468763 31.240085,20.2673734 30.1888045,19.4300455 L24.7666088,23.3064081 C25.9487546,24.1564836 29.5803006,26.7704472 30.0405741,27.1303794 C30.5131947,27.499989 30.6519173,27.8332917 30.6260347,28.8196515 L34.255996,28.3541356 C33.9069778,27.4068858 33.5547903,26.4234626 33.5547903,26.4234626 L33.1028361,26.506221 C33.073256,26.511627 33.043742,26.5142299 33.0146902,26.5142299 C32.7817472,26.5142299 32.5748849,26.346177 32.5319014,26.1061777 C32.4835037,25.8363453 32.6607199,25.5778588 32.9276667,25.5290714 L38.2149694,24.5609318 C38.4818502,24.5123446 38.7375064,24.6911428 38.7859041,24.9609751 C38.8343018,25.2307408 38.6570856,25.4892272 38.3901388,25.5380814 L34.5350918,26.2439971 C34.8196677,27.0403463 36.9201157,32.643823 37.0697327,33.0135661 C37.8487842,32.6879386 38.6968998,32.4952584 39.588065,32.4674943 C41.5065428,32.4053588 43.3354882,33.1068028 44.7347964,34.4366766 C46.1341047,35.7664837 46.937256,37.567413 46.9964821,39.5078301 C47.0557743,41.448314 46.3638783,43.2958282 45.0483582,44.7101289 L45.0483582,44.7101289 Z M28.8799531,10.114121 L28.7650663,9.19797239 C29.090645,9.06562571 31.3486992,8.64529321 33.0838203,9.67109673 C35.4641564,11.0783897 34.5274987,13.4101739 34.5016822,13.5741556 L33.8703989,14.1028082 C33.8703989,14.1028082 33.5462728,14.0712399 33.1413298,14.0069019 C33.0889044,14.0485481 31.350614,15.2334612 30.6622835,15.6947725 C30.3687939,15.8917241 30.0685695,15.6417804 29.7471506,15.3014699 C29.3843327,14.9172441 29.0285137,14.5535744 29.0285137,14.5535744 C29.0285137,14.5535744 29.0330695,12.1654611 29.2215764,11.2174104 C28.9576008,10.9414379 28.7845443,10.7566999 28.7845443,10.7566999 L28.8799531,10.114121 Z" id="picto" fill="#007DBC"></path>
    </g>
</svg>