<?xml version="1.0" encoding="UTF-8"?>
<svg width="55px" height="55px" viewBox="0 0 55 55" version="1.1" xmlns="http://www.w3.org/2000/svg" xmlns:xlink="http://www.w3.org/1999/xlink">
    <title>sports_picto/ice_hockey</title>
    <g id="sports_picto/ice_hockey" stroke="none" stroke-width="1" fill="none" fill-rule="evenodd">
        <path d="M11.4927919,45.9430219 C11.5010132,46.161742 11.3302412,46.3457264 11.1113674,46.354014 C10.7333324,46.3682109 10.3644562,46.2453385 10.051326,46.0116287 C9.86468837,45.8723252 9.69781064,45.6936738 9.56042859,45.4810792 C9.34429524,45.146405 7.31688225,41.8124185 7.31688225,41.8124185 C6.66466004,40.745266 7.21750563,39.971422 7.24144833,39.9389923 L7.27238633,39.8976265 C7.40342213,39.72229 7.65200793,39.6862571 7.82746753,39.8172729 C8.00292714,39.9482168 8.03898542,40.196628 7.9078775,40.3720365 L7.88364634,40.4044662 C7.85004002,40.4564258 7.6414068,40.8225207 7.99384045,41.3991203 C7.99384045,41.3991203 10.0199553,44.7132887 10.2269299,45.0511338 C10.304311,45.1773213 10.6061909,45.5797375 11.0815112,45.5617931 C11.3003128,45.5536496 11.4847149,45.7242297 11.4927919,45.9430219 L11.4927919,45.9430219 Z M26.6385687,47.0276143 C26.7783306,47.1961044 26.7549648,47.4459571 26.5862842,47.5856929 C26.2950775,47.8269697 25.9275715,47.9538778 25.5366997,47.9589224 C25.3037632,47.9619492 25.0626054,47.9216643 24.8241159,47.8365545 C24.4487492,47.7025839 20.8092425,46.2908121 20.8092425,46.2908121 C19.6416753,45.8409045 19.6089344,44.890643 19.6081411,44.8504302 L19.6074587,44.7987589 C19.6046795,44.5798947 19.7799228,44.4001622 19.9989408,44.3973166 C20.2179588,44.394469 20.3978175,44.5695892 20.4007022,44.7885256 L20.401207,44.8290266 C20.4063272,44.890643 20.463732,45.3080489 21.0946799,45.5511273 C21.0946799,45.5511273 24.7209892,46.9479094 25.0910193,47.0900234 C25.2292668,47.143136 25.713818,47.2787641 26.0800259,46.9753665 C26.2486344,46.8357748 26.4988789,46.85898 26.6385687,47.0276143 L26.6385687,47.0276143 Z M48,46.4893538 L48,47.567172 L47.992572,47.567172 C47.9131717,47.8097459 47.1658277,48 46.2550676,48 C45.3443075,48 44.5969635,47.8097459 44.5176353,47.567172 L44.5102794,47.567172 L44.5102794,46.4893538 C44.5102794,46.2266734 45.2914461,46.0137907 46.2550676,46.0137907 C47.2187613,46.0137907 48,46.2266734 48,46.4893538 L48,46.4893538 Z M24.0510263,12.7033281 C24.5484143,13.7246466 25.2534979,14.9650456 25.2534979,14.9650456 L27.0795615,14.9650456 C27.6189934,14.9650456 27.6450996,14.8493077 27.7508946,14.5396403 C28.0193845,13.7548423 28.4263383,11.9526173 28.5799466,11.487792 L28.8885334,11.3267966 C28.8885334,11.3267966 29.3995514,9.07646563 27.8345498,8.44293396 C27.1423029,8.0687676 25.8757918,7.73503024 24.6720942,8.30817065 C23.4530358,8.88866179 22.6302579,10.4197747 23.4458241,12.3491241 C23.6342647,12.4962827 23.8449893,12.6123809 24.0510263,12.7033281 L24.0510263,12.7033281 Z M46.1608834,43.1231538 C46.1608834,43.1231538 43.9383951,44.0980618 43.2457876,44.2930722 C42.9039551,44.3892803 42.6182292,44.1885045 42.6182292,44.1885045 L42.4806308,44.0306081 L42.4755105,44.0350762 L32.1908951,32.2195772 C31.9786561,32.2200816 31.7724748,32.1735991 31.5824477,32.074004 C31.0902521,31.81608 30.816714,31.2621091 30.7928434,30.6134436 L28.3299185,27.7839186 C28.5903314,30.0188996 28.831994,31.3626411 28.831994,31.3626411 L29.0189922,33.4152232 C29.0189922,33.4152232 28.2707108,35.2498779 27.3106951,37.6444849 L27.3424263,37.6472955 L27.5825024,38.4143653 L25.3217923,43.8259408 L24.9092856,43.8259408 L24.8740206,43.8151309 C24.5632703,44.6196751 24.275381,45.375935 24.0290308,46.0395182 C24.0290308,46.0395182 22.5050635,45.605465 22.7941067,43.9872244 C22.8556221,43.6427492 22.9271618,43.2442245 23.0054804,42.8095949 L22.7576157,42.398819 L23.6292886,37.8013004 L23.9511449,37.5946153 C24.3182182,35.577922 24.6144009,33.9570149 24.6144009,33.9570149 L21.8075521,28.5567538 L17.3425992,33.8698151 L15.4926651,36.1198579 L15.6037246,36.4440825 L12.433841,40.621673 L11.9034958,40.8901186 L10.2442379,43.5636929 C10.2442379,43.5636929 8.98724613,42.4734793 9.47677337,41.0073699 C9.74620086,40.2002313 9.91971331,39.6853923 10.0193784,39.3904985 L9.80331718,38.9425366 L11.6970982,34.6191568 L12.2658094,34.4180928 L16.4823207,25.4756466 L17.3551475,24.3789471 L22.7315095,26.4700845 L23.3730585,26.4700845 L17.9861674,23.4325052 L16.9735788,20.6914051 C16.9735788,20.6914051 17.8704204,18.3943754 18.6176922,16.618022 L18.4316315,16.030036 C18.4316315,16.030036 18.6894482,14.713031 19.8334333,14.0294135 C20.5409689,13.6066026 21.4531713,13.5172409 22.5484777,13.900992 L22.7192497,14.3408825 C23.6813568,14.8613427 25.1414288,15.5790474 25.1414288,15.5790474 L28.5355949,15.5860378 L28.9682943,15.2122318 C31.1540753,15.0372557 32.3945523,17.2184754 32.1905345,18.3793856 L31.9332226,18.7415891 L31.9026452,24.217015 C31.9026452,24.217015 32.5980652,26.0916662 33.2595905,27.7239598 C33.4150017,27.7419042 33.5657974,27.7861527 33.7074344,27.8604527 C34.5466548,28.300199 34.7511774,29.5999082 34.1643649,30.7634849 C33.9290486,31.2300398 33.6021442,31.6036296 33.2409123,31.8557163 L42.8391944,42.8826697 L46.0020827,41.3864367 C46.0020827,41.3864367 46.3317996,41.2296212 46.4798549,41.3674113 C46.7820955,41.6483243 46.7430083,42.5876318 46.6264679,42.7912901 C46.5353126,42.9506279 46.1608834,43.1231538 46.1608834,43.1231538 L46.1608834,43.1231538 Z M44.9993019,46.4893538 C45.2377192,46.5681939 45.6666685,46.6478268 46.2550676,46.6478268 C46.8434666,46.6478268 47.2725602,46.5681939 47.5109055,46.4893538 C47.2725602,46.4104416 46.8434666,46.3308087 46.2550676,46.3308087 C45.6666685,46.3308087 45.2377192,46.4104416 44.9993019,46.4893538 L44.9993019,46.4893538 Z M28.9248801,22.3489938 L28.054938,25.0818783 C28.0823423,25.3957255 28.1105399,25.6995555 28.139098,25.9945214 L31.0482803,29.3367234 C31.0724393,29.2812326 31.0978965,29.2259581 31.1255171,29.1709718 C31.1402289,29.1417851 31.1555897,29.1132469 31.1709505,29.084853 L29.3870031,25.4756466 L28.9248801,22.3489938 Z" id="picto" fill="#007DBC"></path>
    </g>
</svg>