<?xml version="1.0" encoding="UTF-8"?>
<svg width="55px" height="55px" viewBox="0 0 55 55" version="1.1" xmlns="http://www.w3.org/2000/svg" xmlns:xlink="http://www.w3.org/1999/xlink">
    <title>sports_picto/skating</title>
    <g id="sports_picto/skating" stroke="none" stroke-width="1" fill="none" fill-rule="evenodd">
        <path d="M16.8363747,47.1894634 C16.3180215,47.2386326 15.9598112,46.813497 15.8660359,46.6784434 C15.6137909,46.3150927 13.1440042,42.7501639 13.1440042,42.7501639 C12.7145661,42.1302923 12.9179716,41.7053992 12.951514,41.6443421 C12.9515936,41.6442612 12.9515936,41.6441803 12.9516733,41.6440994 L12.9638633,41.6250949 C13.0898265,41.4288224 13.0618612,41.1588771 12.8802862,41.0142808 C12.6750483,40.8508417 12.3807358,40.903731 12.2415469,41.1207871 L12.210315,41.1694711 C12.1863334,41.2073993 11.6318883,42.1139565 12.4270259,43.2618309 C12.4270259,43.2618309 14.8996808,46.8489182 15.1618053,47.2080636 C15.3284018,47.4362799 15.5251147,47.6242227 15.7407898,47.7667972 C16.102665,48.005931 16.5180806,48.1168043 16.9338149,48.0736195 C17.2264542,48.0432122 17.4222907,47.7269281 17.2798352,47.4257667 C17.2004808,47.2577989 17.0190651,47.1721572 16.8363747,47.1894634 M35.3891343,48.5959614 C35.1301967,49.0544157 34.581488,49.1067388 34.4187158,49.1067388 C33.9808324,49.1067388 29.687169,49.1024527 29.687169,49.1024527 C28.9406319,49.1017248 28.7156351,48.6881536 28.6857577,48.6251556 C28.6857577,48.6250747 28.685678,48.6249939 28.685678,48.624913 L28.677392,48.6038867 C28.5918231,48.3863453 28.3583809,48.2539605 28.137288,48.3214064 C27.8874331,48.3975054 27.7605935,48.6721413 27.8551655,48.9127307 L27.8763586,48.9665904 C27.8930899,49.0084004 28.3038048,49.9905714 29.6862129,49.9921079 C29.6862129,49.9921079 33.9993166,50.0067455 34.4395902,49.9961514 C34.7193225,49.9893583 34.9839169,49.9344473 35.2230158,49.8375646 C35.6240903,49.6750151 35.9526622,49.3942331 36.1573424,49.0244127 C36.3013914,48.7640101 36.1595732,48.4194213 35.834985,48.364106 C35.6539677,48.3332943 35.4804397,48.4343823 35.3891343,48.5959614 M42.1842146,22.6229777 C41.949896,22.5311089 37.1157302,20.7004458 37.1157302,20.7004458 C37.1157302,20.7004458 34.6291325,14.3530092 34.4430958,13.8971427 C34.2301296,13.3754478 33.6426201,13.0577889 33.1209206,12.9879977 C32.6283017,12.9220884 29.361784,12.475522 28.8745829,12.4100979 C28.3873022,12.3446737 27.3854926,12.1607744 26.4686144,12.675191 C26.4686144,12.675191 20.9726041,15.7632272 20.723785,15.906853 C20.4379179,16.0717477 20.2326799,16.2976996 20.1018567,16.5835765 C19.9907924,16.8262685 16.9010693,23.5788658 16.9010693,23.5788658 C17.100491,23.8967673 18.1737675,23.9038839 18.7465375,23.0896808 C19.3193871,22.2754776 22.0130552,18.3628869 22.0130552,18.3628869 L25.1406231,16.9584108 L25.5587475,24.1744763 C25.5587475,24.1744763 24.3594282,25.5712698 23.8549381,27.6915298 C23.2774674,30.1186931 21.9756885,35.6575874 21.9756885,35.6575874 C21.9756885,35.6575874 17.0020948,40.4170529 16.3994474,40.9978641 C14.7137238,42.6223886 15.3758073,44.3642561 15.7177643,44.7113519 L24.4802923,37.8610631 L28.4468977,31.2679423 L30.0714324,37.8278254 C30.0714324,37.8278254 30.4460553,44.4779599 30.5696283,45.9893467 C30.6931216,47.5004101 32.2096196,48.3831105 32.965319,48.2931826 C32.9674702,48.29294 33.2050554,33.7160509 33.2050554,32.98846 C33.2050554,32.260869 33.2001953,29.1477631 33.2001953,27.6715549 C33.2001953,26.2073963 32.6635173,24.3624191 32.6635173,24.3624191 L33.6454883,19.2636214 C33.6454883,19.2636214 34.7761294,21.9436664 34.8275982,22.0665085 C35.0295695,22.5489813 35.1627033,22.6812853 35.8127562,22.8209484 C36.317804,22.9295574 42.8098079,24.3247335 42.9859651,24.3625808 C42.988196,24.363066 42.9898691,24.3617721 42.9901878,24.3595077 C43.0348047,24.0623899 42.9536975,22.9243817 42.1842146,22.6229777 M28.0216026,8.59438994 C27.9134862,8.06007923 27.9565894,7.49956651 28.1307548,6.94916258 C28.632536,5.35908884 30.2696591,4.68940108 31.642347,5.13523958 C33.0140789,5.58099721 33.9436251,7.21304269 33.4489348,8.78144317 C33.2903853,9.28397182 32.7878073,10.8617533 32.5006654,11.7696852 C32.3787656,12.1571353 31.9310824,12.0896085 31.4065943,12.0177956 C30.8245026,11.9385426 30.050319,11.7892558 30.050319,11.7892558 C30.050319,11.7892558 28.1825423,9.39161031 28.0216026,8.59438994" id="picto" fill="#007DBC"></path>
    </g>
</svg>