<?xml version="1.0" encoding="UTF-8"?>
<svg width="55px" height="55px" viewBox="0 0 55 55" version="1.1" xmlns="http://www.w3.org/2000/svg" xmlns:xlink="http://www.w3.org/1999/xlink">
    <title>sports_picto/kid_scooter</title>
    <g id="sports_picto/kid_scooter" stroke="none" stroke-width="1" fill="none" fill-rule="evenodd">
        <path d="M24.5610972,12.0278434 C24.5610972,12.0278434 24.7491321,12.0639544 25.0509913,12.119395 C25.0903455,12.3649678 25.1540905,12.6037753 25.2462051,12.8319516 C25.580672,13.6604853 27.903777,15.5993244 27.903777,15.5993244 L29.6215201,15.9483103 C29.6215201,15.9483103 30.6832169,15.950331 30.7364963,15.5104965 C30.8600943,14.4950814 31.0986409,12.5317289 31.1720731,11.9260119 C31.4340592,11.7835006 31.6108501,11.6784183 31.6108501,11.6784183 L31.8497427,10.7407606 C31.7635096,10.56741 31.0750284,7.71006697 27.8824133,8.02408388 C25.5554162,8.25296301 23.7099235,10.2138554 23.4922216,10.5645105 L24.2178945,11.3529794 L24.5610972,12.0278434 Z M39,45.4191571 L37.9585425,45.4191571 C37.9585425,43.62362 36.5205164,42.1627473 34.7527805,42.1627473 C32.9852176,42.1627473 31.5471915,43.62362 31.5471915,45.4191571 L31.5471915,46.3003198 L21.7560555,46.3003198 C21.5286664,47.1134777 20.7916629,47.7110236 19.9192985,47.7110236 C18.8665105,47.7110236 18.0099742,46.8408436 18.0099742,45.7713059 L17,45.7713059 C17,44.136116 18.3096711,42.8057175 19.9192985,42.8057175 C21.3514431,42.8057175 22.5449545,43.8588252 22.791372,45.2423798 L25.3982591,45.2423798 L26.2334318,38.7731395 L21.1694626,39.9851007 C20.4243288,37.9615631 22.0215878,37.5324476 22.0215878,37.5324476 L26.6258487,35.7330446 C26.6258487,35.7330446 25.7615281,33.9737944 24.2466101,31.1364838 C22.7316921,28.2991732 25.0007391,23.4061678 25.0007391,23.4061678 C25.0007391,23.4061678 24.259411,21.4805079 24.101216,19.7058818 C23.7896696,16.2118946 26.6411579,16.2118946 26.6411579,16.2118946 L30.5629057,17.0032629 L31.0450155,20.7170795 L34.9895108,20.3765284 C34.9895108,20.3765284 35.1224499,21.8624417 33.9917321,22.3836359 L35.4528517,41.1644652 C37.4627669,41.504577 39,43.2825418 39,45.4191571 L39,45.4191571 Z M37.2935009,45.4191571 C37.2935009,46.8422494 36.1537013,48 34.7527805,48 C33.3520328,48 32.2122332,46.8422494 32.2122332,45.4191571 C32.2122332,43.9961527 33.3520328,42.8383142 34.7527805,42.8383142 C36.1537013,42.8383142 37.2935009,43.9961527 37.2935009,45.4191571 L37.2935009,45.4191571 Z M34.7527805,43.896342 C33.9262572,43.896342 33.2537772,44.579465 33.2537772,45.4191571 C33.2537772,46.258937 33.9262572,46.94206 34.7527805,46.94206 C35.5794769,46.94206 36.2519569,46.258937 36.2519569,45.4191571 C36.2519569,44.579465 35.5794769,43.896342 34.7527805,43.896342 L34.7527805,43.896342 Z M19.9192985,44.8897038 C19.4407349,44.8897038 19.0514316,45.2852562 19.0514316,45.7713059 C19.0514316,46.2574434 19.4407349,46.6529957 19.9192985,46.6529957 C20.3978621,46.6529957 20.7873383,46.2574434 20.7873383,45.7713059 C20.7873383,45.2852562 20.3978621,44.8897038 19.9192985,44.8897038 L19.9192985,44.8897038 Z M32.9332356,22.6034653 C32.5106327,22.6566215 31.9422898,22.72735 31.3160833,22.804756 L31.3160833,22.8048438 L31.2281203,22.8156508 C30.3378519,22.9257412 29.3417166,23.0482201 28.487948,23.152951 L28.4069045,23.1629672 L28.5512606,23.5505242 L31.3025905,23.2936172 L30.1540551,28.6641498 L29.8462279,31.893674 L30.969075,36.2339429 C30.969075,36.2339429 31.4267073,37.4362393 29.7578325,37.9295815 L29.1604281,38.07262 L27.9685599,45.2423798 L30.5092803,45.2423798 C30.5960323,43.0629759 32.2824652,41.2960817 34.4050803,41.1203588 L32.9332356,22.6034653 Z" id="picto" fill="#007DBC"></path>
    </g>
</svg>