<?xml version="1.0" encoding="UTF-8"?>
<svg width="55px" height="55px" viewBox="0 0 55 55" version="1.1" xmlns="http://www.w3.org/2000/svg" xmlns:xlink="http://www.w3.org/1999/xlink">
    <title>sports_picto/land_kite</title>
    <g id="sports_picto/land_kite" stroke="none" stroke-width="1" fill="none" fill-rule="evenodd">
        <path d="M23.6074928,24.4875794 L21.3570471,24.0637734 C21.4460889,24.303628 21.4765441,24.6155648 21.3626122,25.0093418 C21.2194481,25.5044747 20.741827,27.1179847 20.741827,27.1179847 L23.357552,28.2238339 L23.6074928,24.4875794 Z M20.332883,38.629368 L18.0445822,39.1546558 L18.5892905,45.237771 L22.3377911,43.596876 L20.332883,38.629368 Z M41.0095985,17.5754865 C39.6885876,17.816789 37.9401028,18.1240044 36.8639569,18.2696798 C34.4269881,18.5996215 33.4231887,18.4502947 32.9277102,16.6855694 C32.8288225,16.3334679 32.7187433,15.9338361 32.5951489,15.5014054 L24.8712625,24.1495796 L26.2802143,24.4149306 C26.4296774,24.443071 26.5287486,24.590698 26.5014123,24.7445575 C26.4770725,24.8812305 26.361306,24.9769205 26.2309845,24.9769205 C26.2145338,24.9769205 26.1978996,24.9754097 26.1811431,24.972262 L24.3222122,24.622175 C24.4569368,24.7774195 24.5605947,24.972262 24.5712968,25.2096613 C24.6050544,25.9575544 24.6786852,28.0045653 24.7005787,29.1452281 C24.7134212,29.8141769 24.4460512,30.6049415 23.5530648,30.3837843 C22.8969931,30.2213631 22.4849302,30.1193147 22.3119836,30.076506 C22.7178699,31.0099873 24.0342329,34.0354287 24.2452791,34.493041 C24.8719964,35.8519022 25.0815748,37.2789426 23.4405394,37.7023709 C23.0489635,37.803412 22.5940308,37.9302013 22.5940308,37.9302013 C22.5940308,37.9302013 23.2738918,41.0567467 23.3695995,41.4995649 C23.4653684,41.942446 23.6401496,42.6155497 23.5328836,43.0736657 L25.0538104,42.4078646 C25.0349746,42.370407 25.0168727,42.3321939 25.0005443,42.2926588 C24.6532446,41.4519717 25.0338127,40.4805291 25.8504776,40.1230136 C26.6672037,39.765561 27.6108265,40.1572605 27.9581262,40.9980107 C28.1635461,41.495284 28.1142552,42.0382619 27.8706745,42.472896 C27.9027809,42.5304359 27.9323188,42.5900533 27.9581262,42.6526296 C28.3054259,43.4933167 27.924919,44.4646963 27.108193,44.8222119 C26.291528,45.1797274 25.347844,44.7880279 25.0005443,43.9472777 C24.9842771,43.9077427 24.9700279,43.8679558 24.9569408,43.8278541 L16.090494,47.7092804 C16.4297212,48.5474495 16.0492755,49.5117152 15.2361576,49.8676569 C14.4194926,50.2251725 13.4758698,49.83341 13.1285701,48.9927228 C12.9231502,48.4953865 12.9724412,47.9523457 13.2160219,47.5177115 C13.1838543,47.4602975 13.1543775,47.4006172 13.1285701,47.3381039 C12.7812704,46.4973538 13.1617773,45.5259742 13.9785034,45.1684586 C14.7951683,44.8109431 15.7388523,45.2026426 16.0860908,46.0433928 C16.1207046,46.1271215 16.1477963,46.2121723 16.1682221,46.2976638 L16.9871498,45.939141 C16.9871498,45.939141 15.9113096,40.2166891 15.7852079,39.4908299 C15.5596068,38.1922786 15.7183654,37.674923 16.6861445,37.0888216 C17.4936973,36.5998582 18.986982,35.7982025 18.986982,35.7982025 C18.986982,35.7982025 16.1314679,30.9787622 15.5498831,29.9414698 C14.8957684,28.7749959 14.9485452,27.8871562 15.6404538,27.6981684 C16.1096356,27.5699312 17.9644079,27.0698249 18.6643278,26.880963 C18.8943321,26.8188904 19.1491041,26.8164982 19.4024084,26.8615732 L20.5960333,23.9204272 L19.4095636,23.6970036 C19.2601006,23.6688632 19.1610293,23.5212362 19.1883657,23.3673767 C19.2157631,23.2135172 19.3592941,23.1116577 19.5086348,23.1396722 L20.7111883,23.3661805 L22.3606019,13.4286463 C22.3166926,13.434438 22.2748013,13.4397891 22.2367017,13.4443848 C21.1811651,13.5729367 20.9107373,13.3043122 20.9743997,12.0405115 C21.1363384,8.82721549 22.7270431,6.14455843 24.8976203,6.14455843 C24.9023904,6.14455843 24.9072217,6.14405479 24.9121141,6.14405479 C26.7498854,6.14795794 28.3591201,7.56228159 29.4777688,9.41155414 C29.546079,9.52449354 29.4372841,9.66519564 29.3161971,9.61860971 C27.6742444,8.98623719 26.8596587,11.3459404 26.777344,12.2309472 C26.7328842,12.7085789 26.6273306,12.7605789 26.1196211,12.8421672 C25.2912144,12.9753148 23.939993,13.1971016 22.9960032,13.3381814 L21.3128319,23.4794347 L22.3180991,23.6687373 L28.5521255,10.2885657 C28.6252058,10.1318104 28.8078149,10.0656458 28.9600299,10.1408758 C29.1123672,10.2160428 29.17658,10.4040863 29.1035609,10.5607787 L22.9415751,23.7861464 L24.1602124,24.0156765 L32.3904017,14.800476 C31.4217053,11.5636352 29.7099135,7.04643685 26.2922007,5.88046657 C26.149159,5.8316143 26.1753945,5.61580812 26.3257137,5.6043505 L31.0805211,5.24028776 C32.3222138,5.14497546 33.4350528,5.05916922 34.0268505,5.01270919 C39.0468262,4.61924695 41.3112765,13.475484 41.8378217,15.7714779 C42.1501407,17.1324166 42.0803016,17.3798256 41.0095985,17.5754865 L41.0095985,17.5754865 Z M13.8922136,24.3492696 C13.7684357,23.4829601 14.4715968,22.5619437 15.7501048,22.2016582 C17.0286741,21.8414986 17.9713796,22.6780308 18.3218594,23.32312 L17.8570196,23.7491295 C17.9079006,23.8794442 17.9456333,24.017817 17.9669153,24.1638072 C18.0159617,24.500422 18.1760657,25.6196175 18.2643736,26.2281305 C18.3021674,26.4876897 18.0234226,26.5468664 17.7043765,26.6576024 C17.3440508,26.7825031 16.8942552,26.8930502 16.8942552,26.8930502 C16.8942552,26.8930502 15.7197719,26.3578156 15.1000875,25.9312396 L14.8722237,26.0162904 C14.4640135,25.6697289 13.993731,25.0592014 13.8922136,24.3492696 L13.8922136,24.3492696 Z" id="picto" fill="#007DBC"></path>
    </g>
</svg>