<?xml version="1.0" encoding="UTF-8"?>
<svg width="55px" height="55px" viewBox="0 0 55 55" version="1.1" xmlns="http://www.w3.org/2000/svg" xmlns:xlink="http://www.w3.org/1999/xlink">
    <title>sports_picto/modern_dance_02</title>
    <g id="sports_picto/modern_dance_02" stroke="none" stroke-width="1" fill="none" fill-rule="evenodd">
        <path d="M21.4748007,20.1670171 C21.4748007,20.1670171 21.2453475,20.5791534 20.9897993,21.0388611 C20.7634696,21.4461511 20.6162707,21.8105885 20.2767112,21.6994399 C19.4800672,21.4387539 17.9266049,20.9305183 17.4857241,20.78621 C16.1093951,20.3358125 15.4409482,18.8460509 15.8487711,17.6492422 C16.1526697,16.7575024 16.9970134,16.0474392 17.9839357,15.9304876 C17.9969506,15.879409 18.0115274,15.827884 18.0285118,15.7757851 C18.4908673,14.4719089 19.1854091,14.7042178 19.3554492,13.3427586 C19.4693949,11.9881864 18.0941071,11.2425404 18.0941071,11.2425404 C18.0941071,11.2425404 20.8149437,10.8846711 21.2176907,13.1913082 C21.5554282,15.1257919 19.9935713,15.5606936 19.3829758,16.1722343 C19.7212339,16.3271282 20.0192758,16.5364167 20.2618091,16.7985056 C20.748112,17.3239587 21.4748007,20.1670171 21.4748007,20.1670171 M41.9345989,31.1892251 C40.5513069,31.9271551 31.9298907,36.5262089 31.9298907,36.5262089 C31.9298907,36.5262089 31.4385119,35.1194103 32.6585316,34.1915774 C33.8785513,33.2636808 37.749127,30.3200593 37.749127,30.3200593 L32.0301707,30.2834561 L29.8124914,40.8692319 C29.8124914,40.8692319 29.108709,45.7816446 28.8575208,47.930582 C28.629369,49.8819006 26.7764332,50 26.7764332,50 L27.4684371,38.1127712 L27.0259945,28.992525 C27.0259945,28.992525 25.7080374,26.7927002 24.9506335,26.4664602 C24.2719048,26.1740812 22.1301676,26.6542586 22.1301676,26.6542586 L20.4792886,31.9413755 C20.4792886,31.9413755 16.8852152,36.8179502 16.2239915,37.5464425 C15.3137923,38.5492034 14,38.0717043 14,38.0717043 L18.1185101,31.5729206 C19.5395454,26.4775559 19.3932576,25.8085597 19.7829247,24.5685159 C20.2793792,22.9888406 22.6678795,19.8933223 22.8331041,19.1655953 L23.9087882,13.6038272 L23.735169,6 C23.735169,6 25.1277016,5.96537144 25.2926008,7.54306991 C25.4575,9.12083215 25.9426316,13.7638863 25.9426316,13.7638863 L25.6807061,19.3558807 L24.695736,19.1589634 L24.7874913,19.5567518 C24.7874913,19.5567518 26.9715921,20.0413292 28.1379252,20.6779947 C29.0726576,21.1882072 32.4317464,25.6331961 32.4317464,25.6331961 C32.4317464,25.6331961 40.7035165,27.8235831 42.0310396,28.206641 C43.3584975,28.5896988 43.3178909,30.451295 41.9345989,31.1892251" id="picto" fill="#007DBC"></path>
    </g>
</svg>