<?xml version="1.0" encoding="UTF-8"?>
<svg width="55px" height="55px" viewBox="0 0 55 55" version="1.1" xmlns="http://www.w3.org/2000/svg" xmlns:xlink="http://www.w3.org/1999/xlink">
    <title>sports_picto/modern_dance_01</title>
    <g id="sports_picto/modern_dance_01" stroke="none" stroke-width="1" fill="none" fill-rule="evenodd">
        <path d="M16.4931437,20.1116519 C16.9346103,20.2593705 18.4902856,20.7800055 19.2881011,21.0469426 C19.6281814,21.160748 19.7755105,20.7875056 20.0022307,20.3703715 C20.2581043,19.8994978 20.4879481,19.4774072 20.4879481,19.4774072 C20.4879481,19.4774072 19.7601529,16.5656209 19.273199,16.0274423 C19.1464986,15.8874193 19.0042454,15.7626573 18.8494978,15.6523085 C18.8718184,15.5577425 18.8848334,15.4596547 18.8848334,15.358306 C18.8848334,14.6534955 18.3147141,14.0821861 17.6115822,14.0821861 C16.9240682,14.0821861 16.365337,14.628517 16.3405436,15.3114143 C15.6450905,15.6013081 15.0884417,16.1945307 14.8538474,16.898689 C14.4454388,18.1245258 15.1147969,19.6503652 16.4931437,20.1116519 M40.9346074,30.7616797 C39.5513149,31.516382 30.9298961,36.2199665 30.9298961,36.2199665 C30.9298961,36.2199665 30.4385172,34.7811931 31.6585373,33.8322065 C32.8785574,32.8832852 36.7490691,29.8726937 36.7490691,29.8726937 L31.0301111,29.8353238 L28.8125613,40.661701 C28.8125613,40.661701 28.1087135,45.6857666 27.8574602,47.8835467 C27.6293735,49.8792816 25.776372,50 25.776372,50 L26.4683761,37.8425894 L26.0259985,28.5150514 C26.0259985,28.5150514 24.7079759,26.2652274 23.9506368,25.9315723 C23.2719079,25.6326131 21.1301701,26.1237044 21.1301701,26.1237044 L19.4792905,31.5308603 C19.4792905,31.5308603 15.885151,36.5183387 15.2239271,37.2633887 C14.3137276,38.2889411 13,37.8006543 13,37.8006543 L17.1184463,31.1541614 C18.539482,25.9429202 18.3931942,25.2587186 18.7829264,23.9905553 C19.2793161,22.3749108 21.6678821,19.2090353 21.8331067,18.4647679 L22.9087912,12.7765878 L22.7351719,5 C22.7351719,5 24.127705,4.9645195 24.2926042,6.57814229 C24.4574384,8.19176509 24.9426352,12.9402848 24.9426352,12.9402848 L24.6806445,18.6593783 L23.6956742,18.4580505 L23.7874946,18.8648149 C23.7874946,18.8648149 25.9715309,19.3604062 27.1379295,20.0115423 C28.0725971,20.5333512 31.4318171,25.0793692 31.4318171,25.0793692 C31.4318171,25.0793692 39.7035246,27.3196062 41.030983,27.7113052 C42.3585064,28.1030695 42.3178998,30.0070427 40.9346074,30.7616797" id="picto" fill="#007DBC"></path>
    </g>
</svg>