<?xml version="1.0" encoding="UTF-8"?>
<svg width="55px" height="55px" viewBox="0 0 55 55" version="1.1" xmlns="http://www.w3.org/2000/svg" xmlns:xlink="http://www.w3.org/1999/xlink">
    <title>sports_picto/skiing</title>
    <g id="sports_picto/skiing" stroke="none" stroke-width="1" fill="none" fill-rule="evenodd">
        <path d="M44.4117802,32.0058987 C43.5806158,30.90787 41.1955407,27.5635249 41.1955407,27.5635249 L40.2946169,22.7309837 L35.8660147,26.4161577 L35.8040615,27.2986676 C35.8040615,27.2986676 37.1418174,30.5600454 37.6113609,31.7176608 C38.0561231,32.8140939 38.9646671,34.6978578 37.2134973,36.2117664 C35.5092261,37.6851119 34.3006427,38.6969208 33.5162529,39.3418815 L34.8129339,39.6685347 L44.4117802,32.0058987 Z M29.9254442,38.4372796 L30.590512,38.6048099 C31.0707115,38.2312727 31.5911185,37.82515 31.9379327,37.5507195 C32.7591226,36.901095 34.1703551,35.705862 34.1703551,35.705862 C35.269715,34.6699361 35.0993436,33.7877943 34.6096034,32.7421112 L33.3031339,29.6583891 L32.6914077,29.6447658 L34.055246,32.8566209 C34.4952997,33.8798439 34.611462,34.6392529 33.7340185,35.4054122 L29.9254442,38.4372796 Z M47,32.9610664 C47,32.9610664 45.7535631,33.3667596 44.8103873,32.4759038 L35.5634352,39.8576046 L41.1657412,41.2689086 C41.1657412,41.2689086 41.7025039,41.0878164 43.7162314,40.4389897 C44.8967501,40.0586408 44.7601432,41.0459032 44.1324951,41.2580468 C42.8037844,41.7071259 40.0643368,42.5881631 40.0643368,42.5881631 C40.0643368,42.5881631 39.5682773,42.8030068 38.3232034,42.4581891 C37.6730663,42.2453705 33.265838,40.8784957 28.6521196,39.4508682 L26.7085231,40.9980988 L33.9423052,43.5400784 C33.9423052,43.5400784 36.1666737,42.973544 37.2055054,42.7137801 C38.2443989,42.4540162 38.2202372,43.4161797 37.6055993,43.5873305 C36.2480803,43.9652861 32.7788857,44.9706515 32.7788857,44.9706515 C32.7788857,44.9706515 32.2643642,45.137384 31.0584447,44.6760315 C29.9738297,44.2024671 18.1487562,39.2819879 13.1583003,37.2063927 L14.9595282,36.8694299 L24.1400665,40.095522 L25.7382118,38.5495801 C22.6111229,37.5826914 19.7408921,36.6963767 18.2859206,36.2471135 L19.9763143,35.9308925 L26.6955749,37.6235614 L30.364073,34.0751117 C30.364073,34.0751117 29.7244679,32.713269 28.4742519,30.3464904 C27.8667386,29.196423 26.6730859,27.2373626 27.4935944,25.6391366 C27.7028723,25.2314797 29.6391583,22.575604 29.6391583,22.575604 L32.7207116,18.7230839 L29.0796588,19.6762266 L26.4984398,25.4707472 C26.4984398,25.4707472 25.5464665,24.8641405 25.6181464,23.9650003 L9.15965345,28.3133608 L9,27.7204388 L25.7784194,23.2875768 C26.5586583,20.3940291 27.0708256,18.3955102 27.1387263,18.1502287 C27.2076802,17.9011426 27.3252675,17.7567475 27.5942064,17.6565362 C29.2427816,17.0422587 34.3347789,15.3807026 34.9176348,15.2569879 C35.4645579,15.1409441 36.1434413,15.3526581 36.9081299,15.8079353 L41.9233052,18.7066377 C42.6779574,19.138473 42.7812953,19.8607553 42.9325851,21.4049789 C43.3094466,25.2526511 43.4857035,26.9841035 43.4857035,26.9841035 L47,32.9610664 Z M44.6822061,15.5865868 L44.2419045,15.4890756 C44.2368863,15.4923894 44.2321779,15.4958873 44.2271596,15.499201 C43.797576,15.7760248 42.6364487,16.7595438 41.8594314,17.2584525 C41.4579126,17.516314 41.1418892,17.432733 40.7043755,17.1805785 C40.2669238,16.9283013 39.220472,16.3330474 39.220472,16.3330474 C39.220472,16.3330474 39.3917726,14.63326 39.6187073,13.3381225 C39.4922607,13.0937002 39.3785146,12.8178583 39.3124725,12.5287613 C39.9357839,10.2437227 41.5834298,9.87491075 43.0680768,10.0313337 C44.5239775,10.1847496 45.5077947,11.2279781 45.763042,11.8416419 C46.6711523,13.5344336 44.6822061,15.5865868 44.6822061,15.5865868 L44.6822061,15.5865868 Z" id="picto" fill="#007DBC"></path>
    </g>
</svg>