<?xml version="1.0" encoding="UTF-8"?>
<svg width="55px" height="55px" viewBox="0 0 55 55" version="1.1" xmlns="http://www.w3.org/2000/svg" xmlns:xlink="http://www.w3.org/1999/xlink">
    <title>sports_picto/sledge</title>
    <g id="sports_picto/sledge" stroke="none" stroke-width="1" fill="none" fill-rule="evenodd">
        <path d="M36.5111941,39.087759 L35.1792587,35.4401326 L33.5762834,35.9673909 L34.5498724,39.0814185 L36.5111941,39.087759 Z M30.7733567,39.2874497 L30.0318798,37.133099 L24.5638265,38.9685585 C24.5638265,38.9685585 25.552947,39.4579744 26.3704288,39.8167103 C26.9945938,40.0904841 27.5861759,40.2585394 28.884537,40.0681924 C29.5106187,39.9764228 30.2999456,39.5635595 30.7733567,39.2874497 L30.7733567,39.2874497 Z M42,39.0213511 C41.8272377,41.1923205 39.9452254,42.9113828 38.3402673,42.9113828 C36.7352432,42.9113828 32.7093654,43.0064895 29.9683662,42.9992814 C28.5390124,42.9954771 27.1349054,43.0802389 25.1074925,42.1993838 C22.1132319,40.8983907 14.5565654,37.0520747 13.9168028,36.7275773 C13.2770402,36.4031466 13.0067273,35.9807393 13,35.1771042 C12.996351,34.7093126 13.053586,33.755509 13.053586,33.755509 L19.0602162,36.5463072 L19.1298763,36.5768748 L22.8159793,39.2813095 C22.8159793,39.2813095 23.3036661,38.6303123 23.4286445,38.0859014 C23.5429823,37.5872753 23.5975075,36.7606811 22.9869572,35.8618725 C21.9819087,34.3824792 20.3688214,31.9502166 20.1025401,31.5205345 L21.0331038,28.9299609 L20.8159943,27.9756234 L19.4492949,31.6543513 C19.4492949,31.6543513 21.3457151,34.494605 22.5015175,36.1208298 C23.2838388,37.2215983 22.9422796,38.1010518 22.7349516,38.4578521 L18.9677547,35.6266753 C18.9677547,35.6266753 18.0636274,34.9039977 17.6187677,34.5478648 C15.8380071,33.1219981 16.205408,31.2219995 16.8363804,29.0751906 C17.4803067,26.8841987 17.8445352,25.6038287 18.3813277,24.0393398 C19.1565771,21.7798044 20.8105749,21.5499465 22.8774441,22.1410097 C23.9561843,22.4495559 27.963226,23.6577116 27.963226,23.6577116 C29.142557,24.0452798 29.7878712,24.5577215 30.1903664,25.9959353 C30.5906146,27.4260734 31.093304,29.9267461 31.093304,29.9267461 C30.5186413,29.680403 29.7718771,29.7648311 29.3582125,29.9003832 L28.8608764,28.1044346 L28.5073547,27.9875701 L28.9579643,30.6465538 L28.9614671,30.6451522 L28.9626568,30.652694 L28.971513,30.6409475 L29.2349524,30.5313578 C29.2349524,30.5313578 31.4366477,29.7261877 32.277724,31.6295902 L35.3772678,30.933676 C35.3772678,30.933676 37.5757907,30.5089327 38.2879231,32.8988144 L40.1163355,39.0589934 C40.1163355,39.0589934 41.3596426,39.0370354 42,39.0213511 L42,39.0213511 Z M22.1957137,18.5880229 C21.3675913,15.6766227 22.7651552,13.7092818 24.5630995,13.1752826 C26.3383085,12.6478908 28.0546301,13.4142174 28.9616654,14.1035242 C30.2702707,15.1354822 30.3349078,17.3992223 30.3349078,17.3992223 L29.704398,17.4141724 C29.6578698,17.779182 29.554305,18.1442583 29.3853098,18.4971209 C29.1052154,19.0819772 28.1182099,21.1417551 27.6115549,22.1982072 C27.3957672,22.6485793 26.8850807,22.4333377 26.254637,22.2542034 C25.542769,22.0520432 24.5805476,21.701917 24.5805476,21.701917 C24.5805476,21.701917 23.9953102,20.62918 23.4725291,19.5111254 C23.0610454,19.2978861 22.5815539,18.9931442 22.1957137,18.5880229 L22.1957137,18.5880229 Z" id="picto" fill="#007DBC"></path>
    </g>
</svg>