<?xml version="1.0" encoding="UTF-8"?>
<svg width="55px" height="55px" viewBox="0 0 55 55" version="1.1" xmlns="http://www.w3.org/2000/svg" xmlns:xlink="http://www.w3.org/1999/xlink">
    <title>sports_picto/snorkelling</title>
    <g id="sports_picto/snorkelling" stroke="none" stroke-width="1" fill="none" fill-rule="evenodd">
        <path d="M47.9167173,34.5450676 C47.896793,34.567998 45.8920369,36.8597317 43.8103812,39.2132753 L43.7918271,39.2325164 C43.455741,39.5551879 43.0734695,39.6694993 42.7097521,39.6694993 C42.3482041,39.6694993 42.0055527,39.5563798 41.7444251,39.4227138 C41.5079032,39.6083705 41.2867954,39.7820512 41.1095895,39.921166 C41.0226422,39.9893896 40.9372933,40.0096524 40.8505172,39.9959736 C40.6467647,39.9637916 40.4339349,39.7461231 40.1782879,39.5177273 C39.8542477,39.2283163 39.5537855,38.9671709 39.441262,38.868014 C37.1295355,39.1592981 35.4189618,39.3917805 34.3895804,38.9004798 C31.928736,37.7260919 30.0401,36.7682939 30.0401,36.7682939 C30.0401,36.7682939 26.003927,35.7268342 22.9582003,34.9118971 C23.137804,34.6573925 23.6843792,34.0882761 24.9277892,34.2083768 C27.0472953,34.5288347 31.6988364,35.4189766 32.0845904,35.4929896 L33.7667336,36.383018 L33.582734,35.8998905 L32.2372478,35.0766667 C32.2372478,35.0766667 26.5522149,34.0602942 25.0260403,33.7988082 C23.4998658,33.5372656 22.5852344,34.5220805 22.4382288,34.772385 C21.363347,34.483655 20.6173581,34.2776788 20.0945892,34.1220473 C19.688283,34.0010952 19.1350283,33.6981756 18.7067997,33.1518761 C18.3694006,32.7215907 16.2971646,29.9724411 14.8520572,28.0531559 L8,23.8915737 L12.3578155,23.7591564 L14.0094728,25.93743 C14.48971,25.8280566 15.1985336,25.8404299 15.8653394,26.513471 C18.1978465,28.8678092 20.6095368,31.3930469 20.6095368,31.3930469 L26.1859855,31.7903557 C26.1859855,31.7903557 24.9820814,27.833728 24.891937,27.5713339 C24.7546367,27.1714143 24.6366897,26.5340743 24.6445681,25.7597763 L24.5407793,21.1289723 L19.3148604,16 L23.5878408,16.8611951 L24.652161,19.2601454 C25.315941,19.2938032 25.8470449,19.5741329 26.0593038,20.769862 C26.4495679,22.9684552 27.1565076,26.5300444 27.1565076,26.5300444 L29.9031422,30.9895515 C31.7997707,30.8633208 32.7218809,32.0140973 33.2078841,32.5547778 C33.6938302,33.0954015 34.0383656,33.4786909 34.0383656,33.4786909 L39.0997524,34.5736171 C38.806141,35.2607342 38.8882357,36.4260976 38.8882357,36.4260976 L39.2534375,36.6786724 C39.2534375,36.6786724 39.2218099,36.1756795 39.2854647,35.6409019 C39.493499,33.8928569 41.0389698,33.1975666 42.2592586,33.3903181 C42.9293184,33.4962292 43.553878,33.8513098 43.9687476,34.3734302 C44.4965974,35.0375035 44.6390358,35.9726548 44.3665475,36.8030301 C44.3665475,36.8030301 41.472051,36.1545654 41.2733223,36.1094425 C40.8956179,36.0237373 40.7274322,36.1073424 40.6806188,36.3882965 C40.6048609,36.8437258 40.5720915,37.0413586 40.5448028,37.2045957 C40.5174569,37.3678329 40.4921091,37.5726739 40.8569683,37.7638929 C40.9919851,37.8346139 41.1727305,37.9093647 41.4268932,37.9647041 C42.6744137,38.2359525 42.2694205,37.5506517 42.9457031,37.6902205 C43.2584967,37.7747906 42.9937154,38.0996756 43.1721202,38.3015085 C42.9495281,38.4762676 42.6617398,38.7022795 42.3618485,38.9378268 C42.6450126,39.020013 43.0054759,39.033408 43.3069657,38.7510917 C45.3837688,36.4029969 47.3782488,34.1228987 47.398173,34.0999683 C47.521829,33.9576182 47.7381412,33.9418394 47.8812647,34.0647213 C48.0245023,34.18766 48.0403732,34.4026608 47.9167173,34.5450676" id="picto" fill="#007DBC"></path>
    </g>
</svg>