<?xml version="1.0" encoding="UTF-8"?>
<svg width="55px" height="55px" viewBox="0 0 55 55" version="1.1" xmlns="http://www.w3.org/2000/svg" xmlns:xlink="http://www.w3.org/1999/xlink">
    <title>sports_picto/snowboard</title>
    <g id="sports_picto/snowboard" stroke="none" stroke-width="1" fill="none" fill-rule="evenodd">
        <path d="M25.8543329,15.2719964 C24.9382824,13.376836 25.6932303,11.872857 26.8940914,11.302731 C28.079783,10.7397142 29.3727783,11.0675483 30.0888617,11.4350899 C31.697477,12.0573503 31.2917807,14.2677446 31.2917807,14.2677446 L30.9141304,14.4646646 C30.8759126,15.0883122 30.8024169,16.2854381 30.7615533,16.9507585 C30.7409157,17.2878981 30.3571505,17.2857596 29.9061808,17.3375472 C29.3969437,17.3959816 28.9403884,17.448694 28.9403884,17.448694 C28.9403884,17.448694 27.5681941,16.469469 26.795666,15.7373912 C26.4958623,15.6382665 26.1513732,15.4898395 25.8543329,15.2719964 L25.8543329,15.2719964 Z M27.7912095,32.8012903 L25.7286847,40.7342145 L19.7941119,38.7486571 L24.5361727,32.4406266 L28.5220508,31.6878569 L27.7912095,32.8012903 Z M38.0218122,20.3045837 C38.0218122,20.3045837 35.4855047,18.9798383 34.3754843,18.3963031 C33.1540444,17.7541021 32.5703709,17.602554 31.6856001,17.7094237 C31.0209049,17.7897639 28.2323013,18.1267301 27.6605635,18.1946435 C26.8328254,18.292959 26.2880752,18.5023058 25.8015924,19.0620858 C25.4290574,19.4907207 22.8522978,22.4554453 22.8522978,22.4554453 L17.2469858,26.4627422 C17.3428242,26.9696942 18.8464876,27.5266422 19.812868,26.8940936 C20.779366,26.261545 27.0745381,22.1413674 27.0745381,22.1413674 L29.2984007,26.9836237 C29.2984007,26.9836237 23.4069846,29.6102261 22.8930438,29.8424612 C22.0083319,30.2420811 21.7254616,30.5278377 21.2956587,31.3738945 C20.9700433,32.0148239 18.3686479,37.1355542 17.8762267,38.1048378 C16.4114866,37.6127977 15.3221626,37.2458918 15.0811555,37.1634709 C13.3090857,36.5575098 12.1663744,34.6284794 12.0168547,36.2675917 C11.8238256,38.3841787 13.3340742,39.0031446 14.2303691,39.33173 C15.1590609,39.6721063 31.6779566,45.6112078 34.592032,45.9600806 C36.4277197,46.1799467 36.9996339,45.4506432 37.1091131,44.7752658 C37.3309525,43.4073448 36.1600189,42.6761918 33.0998928,42.6411658 C31.2566204,42.6200693 29.8413282,42.054336 27.8464782,41.4369884 L31.1622519,33.5912824 C31.1622519,33.5912824 32.9166239,32.4119007 34.523534,31.3469025 C35.839754,30.4746051 35.7532055,27.9826736 34.8467976,25.6535609 L33.9844871,21.2223686 L36.682544,22.3616381 C36.682544,22.3616381 40.0079015,24.6580945 40.907195,25.2542877 C41.678312,25.7655169 42.8431308,25.6920548 43,25.1526777 L38.0218122,20.3045837 Z" id="picto" fill="#007DBC"></path>
    </g>
</svg>