<?xml version="1.0" encoding="UTF-8"?>
<svg width="55px" height="55px" viewBox="0 0 55 55" version="1.1" xmlns="http://www.w3.org/2000/svg" xmlns:xlink="http://www.w3.org/1999/xlink">
    <title>sports_picto/synchronized_swimming</title>
    <g id="sports_picto/synchronized_swimming" stroke="none" stroke-width="1" fill="none" fill-rule="evenodd">
        <path d="M46,47.1612966 L46,48 C36.7058851,48 31.9815654,47.0004753 27.4127514,46.0338696 C22.8863353,45.0762801 18.2058851,44.086051 9,44.086051 L9,43.2473476 C15.0397766,43.2473476 19.1493615,43.669495 22.5408448,44.2303079 C22.4051715,43.2656593 22.1407626,41.2732496 22.0903757,40.0588071 C22.0220484,38.4105453 22.0242209,37.2774571 22.5810703,35.654566 C23.1731695,33.9289339 24.5820419,29.7611373 24.5820419,29.7611373 L26.264924,20.3952669 L26.0813866,8 C28.0526446,8.12629475 28.3204874,9.9744475 28.4557402,11.2857602 C28.5916238,12.6029438 29.0587718,18.3043794 29.2088815,20.1233174 C29.3591313,21.9423951 29.5810021,26.8606215 29.3081837,29.9649422 C29.3081837,29.9649422 31.3762212,31.5020758 34.1389538,34.5400691 C38.403624,39.2296789 38.936226,45.4531374 39.0027312,46.9346371 C41.0236754,47.0772865 43.3197506,47.1612966 46,47.1612966 L46,47.1612966 Z M14.9944353,34.5035855 C15.6864675,35.0947315 16.7281949,35.0146354 17.3212052,34.3241029 C17.4078932,34.223179 17.4783929,34.1141475 17.5364885,34.0007828 C18.0674086,34.0966046 18.5973476,34.0937391 19.1067534,33.9819819 C20.1326429,33.7567201 22.8474414,31.4270118 22.8474414,31.4270118 C22.8474414,31.4270118 23.2342085,30.2941333 23.4916795,29.4493493 C23.8148147,28.3891584 23.4079349,28.108682 23.0633554,28.0043333 C21.8977279,27.6503306 19.8851932,27.0503082 19.2399739,26.8546108 C17.226318,26.2441046 15.1588412,27.477348 14.615447,29.2600819 C14.3328175,30.1874782 14.438497,31.229008 14.8909283,32.1027971 C14.8650691,32.1291463 14.8388595,32.1548666 14.8144719,32.1832427 C14.2216018,32.8735655 14.3019126,33.9124394 14.9944353,34.5035855 L14.9944353,34.5035855 Z M30.513476,44.0552286 L26.1223128,41.5010274 L25.573873,44.7935671 C26.2572153,44.932093 26.9239489,45.0731349 27.5872486,45.213478 C28.6014349,45.4280462 29.6235402,45.644222 30.7023395,45.8505431 L30.513476,44.0552286 Z" id="picto" fill="#007DBC"></path>
    </g>
</svg>