<?xml version="1.0" encoding="UTF-8"?>
<svg width="55px" height="55px" viewBox="0 0 55 55" version="1.1" xmlns="http://www.w3.org/2000/svg" xmlns:xlink="http://www.w3.org/1999/xlink">
    <title>sports_picto/trekking</title>
    <g id="sports_picto/trekking" stroke="none" stroke-width="1" fill="none" fill-rule="evenodd">
        <path d="M36.0556519,44.8117249 L30.1335799,20.1393616 C29.8756607,20.1068628 29.6510743,19.9195855 29.5865945,19.6533603 L29.54124,19.4653036 C28.2789659,19.934549 26.1861825,20.7205214 24.5705184,21.3283349 L22.866097,26.3326059 C22.866097,26.3326059 24.9507619,27.8196018 26.5320003,28.9475521 L27.1158314,26.5862837 C26.898739,26.4384414 26.7845332,26.1656696 26.8523697,25.897496 L26.8687629,25.8331218 C25.7067993,25.6837208 23.7642867,25.1398918 23.7642867,25.1398918 L24.5067412,23.0388477 L27.3878019,23.7909964 L27.4248036,23.6454142 C27.5116094,23.3025791 27.8635161,23.0928565 28.2069921,23.17952 L28.3623369,23.2187212 C28.7057348,23.3052288 28.9157235,23.6566368 28.8289958,23.999472 L28.7890277,24.1567444 L30.0911919,24.496696 C30.0911919,24.496696 29.9701166,24.9373393 29.5357756,25.3479777 C29.2304724,25.6365703 28.8170522,25.7805158 28.3604634,25.8427857 L28.2564838,26.2515537 C28.1909892,26.5106869 27.9738187,26.6935219 27.7234716,26.7300734 L27.0787516,29.3376157 C27.5316715,29.6606554 27.9018449,29.9246985 28.1052763,30.069891 C29.3385892,30.949541 29.5269546,31.2637741 29.5832378,32.9080424 C29.6259381,34.1555447 30.0181252,44.2473211 30.0181252,44.2473211 C28.8770044,44.402879 27.8062961,43.5424788 27.5824903,42.0225945 C27.3586845,40.5024763 26.3021837,33.3332546 26.3021837,33.3332546 L26.105856,33.2722317 L22.7205101,46.9634266 L24.5567013,45.6381455 L26.8056882,45.6102448 L31.0029644,44.6258504 L34.9132821,46.2203184 L36.0556519,44.8117249 Z M45,46.5330707 L44.0178929,46.5330707 L42.248055,45.1759921 L40.694685,44.8742286 L36.4332412,45.2952324 L33.5332113,48.8711145 L32.7635129,48.8711145 L34.5201582,46.7050728 L30.9537849,45.2508875 L26.8786769,46.2066018 L24.7535755,46.2330217 L19.5343022,50 L18.5131638,50 L21.937541,47.5284539 L25.50852,33.0865131 L21.219364,31.752815 L18.172342,39.0933373 C18.172342,39.0933373 15.4655172,44.3678862 12.6678275,50 C11.77479,49.7543495 11.0381902,48.4769203 11.6822857,46.6954868 C12.3263812,44.9140533 14.7666998,38.3124307 14.7666998,38.3124307 L15.7358484,29.9881374 C15.2487371,29.0137187 15.0214184,27.9954227 15.085664,27.3270539 C15.1458504,26.7008478 15.3424123,26.3371261 15.3424123,26.3371261 L20.3291368,26.244072 L20.481281,25.8300044 L15.0848054,25.883156 L14.5800518,27.215763 C14.5800518,27.215763 12.7426896,26.7801854 12.1715828,26.6532297 C10.2850411,26.2337067 9.88957538,25.4828049 10.0238432,23.8104801 C10.2899591,20.49755 10.5402281,19.2975879 11.0933805,13.9449484 C11.1567675,13.3312119 11.7227222,13.1802522 11.7227222,13.1802522 C11.7227222,13.1802522 11.2299903,12.7856683 11.2932992,12.3108116 C11.3897066,11.5874208 11.4866605,11.0365777 11.5131238,10.8471182 C11.7911051,8.85619599 12.0912563,8.28914243 13.6352588,8.1437161 C14.9011238,8.02447587 16.2882202,7.96781728 18.1043493,7.9487296 C19.8137667,7.93103205 20.1275008,9.51404359 19.8575599,11.0269917 C19.7800436,11.4610885 19.670912,11.9896423 19.5660737,12.4755658 C20.1542763,11.802365 21.1970381,11.722326 22.0533861,12.1032712 C22.686787,12.3849276 23.5571863,12.7768617 24.222671,13.0900816 C25.1570036,13.5297897 25.3079769,15.2103756 25.3079769,16.4509417 C25.3079769,16.9595441 25.3026687,17.9303779 25.3026687,17.9303779 L23.8965249,18.2483518 L23.4002022,16.378852 L22.9920903,16.2011606 L23.5508632,18.7961555 L29.0573292,17.456924 L29.0422631,17.3942644 C28.9589702,17.050572 29.1726279,16.7013462 29.5168064,16.6182677 L29.6726196,16.5807031 C30.0169542,16.4975467 30.3667533,16.7107763 30.4498901,17.0544687 L30.4644097,17.1147123 L31.655881,16.8250287 C31.8709438,17.2766608 31.743077,18.395181 30.9006242,18.9249038 L30.9942995,19.3135646 C31.0589354,19.5805692 30.943949,19.8503794 30.7281837,19.996663 L36.6513485,44.6735465 L40.7230218,44.2712471 L42.500666,44.6165762 L45,46.5330707 Z M22.5744547,11.5388675 C22.5744547,11.5388675 21.2402068,8.97481275 21.2203008,8.13740339 C21.206874,7.58133863 21.352539,7.02652083 21.6302862,6.50599435 C22.4305851,5.00200869 24.3044807,4.64436592 25.6245212,5.34422037 C26.9439373,6.04376308 27.5961513,7.85294139 26.8070153,9.33643019 C26.5540921,9.81167656 25.7569937,11.3211177 25.2992339,12.1798032 C25.1047016,12.5462526 24.6488934,12.564957 24.1596743,12.3168905 C23.5041817,11.9844986 22.5744547,11.5388675 22.5744547,11.5388675 L22.5744547,11.5388675 Z" id="picto" fill="#007DBC"></path>
    </g>
</svg>