<?xml version="1.0" encoding="UTF-8"?>
<svg width="55px" height="55px" viewBox="0 0 55 55" version="1.1" xmlns="http://www.w3.org/2000/svg" xmlns:xlink="http://www.w3.org/1999/xlink">
    <title>sports_picto/triathlon</title>
    <g id="sports_picto/triathlon" stroke="none" stroke-width="1" fill="none" fill-rule="evenodd">
        <path d="M41.8149051,34.3500825 C41.8149051,32.0470571 39.9344886,30.1733018 37.6230857,30.1733018 C37.2516229,30.1733018 36.8914754,30.222336 36.5482421,30.3131229 L37.8446197,34.2295815 C37.885638,34.3535472 37.8180404,34.487261 37.6935712,34.5281915 C37.6689366,34.5362953 37.6438895,34.5401124 37.6191961,34.5401124 C37.5195971,34.5401124 37.4268346,34.4771018 37.3938903,34.3776827 L36.0973359,30.4609891 C34.5385239,31.070306 33.4313843,32.5833218 33.4313843,34.3500825 C33.4313843,36.6533429 35.3117418,38.5269807 37.6230857,38.5269807 C39.9344886,38.5269807 41.8149051,36.6533429 41.8149051,34.3500825 L41.8149051,34.3500825 Z M35.5543153,28.8204255 L35.3863526,28.3128767 L31.390254,28.3128767 C31.383123,28.3244453 31.3772296,28.3359551 31.3698628,28.3474063 C31.1479162,28.6931713 28.7952593,32.3578815 27.9057051,33.7435256 L28.2090399,34.6543299 L35.5543153,28.8204255 Z M27.7474076,34.769722 L27.5764982,34.2563008 C27.5706637,34.265403 27.5674223,34.2705119 27.5674223,34.2705119 C27.1499318,34.2278785 26.7352112,33.7789947 27.062768,32.7138645 L25.7418737,28.7477256 L24.5484543,30.5840152 C25.7193019,31.429695 26.4829724,32.8024198 26.4829724,34.3500825 C26.4829724,34.4437468 26.4792595,34.5364128 26.4737787,34.6286677 L27.7474076,34.769722 Z M26.0082567,34.3500825 C26.0082567,32.9684904 25.3309838,31.7419288 24.29044,30.9811635 L22.2255592,34.1585259 L26.0018918,34.5764036 C26.0058993,34.5014722 26.0082567,34.426071 26.0082567,34.3500825 L26.0082567,34.3500825 Z M25.9489099,35.046428 L21.7913314,34.5863279 C21.7096484,34.5773432 21.6383379,34.5267821 21.6030952,34.4526141 C21.5678525,34.3785635 21.5735691,34.2916525 21.6183003,34.2227696 L23.8922799,30.7237189 C23.2797758,30.3742542 22.5713856,30.1733018 21.8164963,30.1733018 C19.5051523,30.1733018 17.624677,32.0470571 17.624677,34.3500825 C17.624677,36.6533429 19.5051523,38.5269807 21.8164963,38.5269807 C23.8896868,38.5269807 25.615106,37.0191914 25.9489099,35.046428 L25.9489099,35.046428 Z M26.0971885,28.3128767 L27.3294456,32.0131735 C27.7845362,30.8998312 28.5373629,29.1776417 28.9177248,28.3128767 L26.0971885,28.3128767 Z M25.9395982,27.8399749 L29.1263522,27.8399749 C29.1438557,27.8005126 29.1532851,27.7791372 29.1532851,27.7791372 C29.1532851,27.7791372 27.4885093,27.13394 25.9872761,26.5525168 L25.5109102,26.5525168 L25.9395982,27.8399749 Z M27.575732,23.9571649 C27.575732,23.9571649 30.8849514,26.2540244 31.3362702,26.5729527 C31.6330044,26.7827137 31.77592,27.2803382 31.6061303,27.8399749 L35.2298231,27.8399749 L35.0162452,27.1948952 L34.4949125,27.1948952 C34.3020795,27.1948952 34.1179688,27.1147374 33.9868989,26.9736831 L30.5990612,23.3180163 L30.4500753,23.3096776 L30.7527618,24.1349215 L27.575732,23.9571649 Z M42.2895619,34.3500825 C42.2895619,36.9140173 40.1961569,39 37.6230857,39 C35.0500146,39 32.9567275,36.9140173 32.9567275,34.3500825 C32.9567275,32.3742067 34.2005357,30.6834344 35.9485268,30.0112244 L35.7128486,29.299141 L28.2388607,35.2353421 C28.1962512,35.2691082 28.1440354,35.2869602 28.0909356,35.2869602 C28.0683638,35.2869602 28.0456151,35.2836717 28.0233969,35.2771533 C28.0221593,35.276801 28.0210985,35.2760963 28.0198609,35.2756852 L26.4216218,35.0987508 C26.0611208,37.307877 24.1337337,39 21.8164963,39 C19.2433662,39 17.1500202,36.9140173 17.1500202,34.3500825 C17.1500202,31.7862652 19.2433662,29.7003412 21.8164963,29.7003412 C22.6664466,29.7003412 23.4633561,29.9291287 24.150471,30.3263357 L25.5503373,28.1722922 L25.0109117,26.5525168 L23.5646052,26.5525168 C23.4335354,26.5525168 23.3272769,26.446638 23.3272769,26.3160366 C23.3272769,26.1854938 23.4335354,26.079615 23.5646052,26.079615 L24.7658629,26.079615 C24.1617275,25.8457773 23.7190131,25.6747152 23.6436951,25.6459993 C23.2225506,25.4862122 23.0169289,25.2630035 22.9317688,24.76579 C22.8658803,24.3816784 22.7213145,23.4385761 22.7213145,23.4385761 C22.8769599,23.0635666 24.2057514,20.315122 29.1150957,20.2121207 C31.7699677,20.1565093 31.8931403,20.1596804 32.4363966,21.1276229 C32.6063631,21.4305197 35.1306367,25.8781928 35.1306367,25.8781928 L38.070397,26.2412813 C38.3481543,26.275576 38.5566638,26.5107643 38.5566638,26.7896431 L38.5566638,27.1948952 L38.5530099,27.1948952 C38.5479416,27.48546 38.4918951,27.916668 38.2339397,28.2058235 C38.064091,28.3961469 37.8287664,28.4967406 37.5533665,28.4967406 C37.4223555,28.4967406 37.316097,28.3908618 37.316097,28.2602603 C37.316097,28.1296588 37.4223555,28.0238388 37.5533665,28.0238388 C37.6951624,28.0238388 37.7987099,27.9817339 37.8791552,27.891593 C38.0280822,27.7247003 38.0709274,27.4228018 38.0769977,27.1948952 L35.516008,27.1948952 L36.3993741,29.8637692 C36.789637,29.7579491 37.1997018,29.7003412 37.6230857,29.7003412 C40.1961569,29.7003412 42.2895619,31.7862652 42.2895619,34.3500825 L42.2895619,34.3500825 Z M36.1484319,19.7329941 C36.1257422,19.6271153 36.1541485,17.9877262 34.3550614,17.6968678 C33.0437145,17.4849341 31.7503426,18.2759421 31.5807886,18.4336152 L31.8672682,18.9632441 L31.959854,19.3764239 C31.959854,19.3764239 32.1394267,19.461632 32.4036881,19.58319 C32.4051615,19.6218889 32.408285,19.6605878 32.4134123,19.6991106 C32.4701071,20.1259143 33.4937957,21.7998329 33.4937957,21.7998329 C33.4937957,21.7998329 33.8185236,21.8796384 34.1542723,21.9683699 C34.4515369,22.0470009 34.706133,22.0827049 34.8043765,21.8723567 C35.0148897,21.4222396 35.3763338,20.6329933 35.5347491,20.2912215 C35.7379546,20.2445949 35.8836401,20.2039581 35.8836401,20.2039581 L36.1484319,19.7329941 Z M20.608638,28.7176591 C21.2156023,28.5037874 21.6810653,27.9744521 21.7831395,27.3650177 C21.9308288,26.4832229 21.3697744,25.488796 20.3603478,25.3208463 C20.0106317,25.2627099 19.6667502,25.2856121 19.3523357,25.3987139 C18.8783861,25.5693062 17.4851206,27.1109204 17.4851206,27.1109204 C17.4851206,27.1109204 17.4890692,27.443179 17.4931946,27.8137254 C17.4960234,28.0698781 17.4778716,28.293909 17.5864875,28.3994942 C17.4525299,28.3778838 17.32146,28.3556863 17.1927475,28.3329602 L17.1910385,28.034409 L17.1700578,26.4937932 C17.1700578,26.0287603 16.9612537,25.4635449 16.6625157,25.2191369 C16.6625157,25.2191369 14.0891499,22.9831739 12.9115249,21.9846951 C11.9941537,21.2068999 11.2892407,21.010939 10.6465622,22.3298729 C10.3592575,22.9195174 9.70060791,24.2584174 9.23272857,25.2576009 C9.10266059,25.5354226 8.71121903,26.3582002 9.37670504,26.9846057 L11.880882,23.3841392 L14.0924502,26.261541 L13.0415339,27.3180975 L12.5736546,27.4670795 C11.3772296,27.3094651 9.93469491,27.2018833 8,27.2018833 L8,27.5391335 C11.7043738,27.5391335 13.587737,27.9372213 15.4091012,28.3222138 C17.2475564,28.7107884 19.1485999,29.1126346 22.8884521,29.1126346 L22.8884521,28.7754432 C22.0399162,28.7754432 21.2872074,28.7544788 20.608638,28.7176591 L20.608638,28.7176591 Z M44.5522261,26.3636028 C44.5522261,26.3636028 45.6123361,26.6599225 46.0993102,26.6906937 C46.4972345,26.7158274 46.9091263,26.6940997 47.1598917,26.4575019 C47.3561429,26.2722874 47.4108928,26.0736252 47.4108928,26.0736252 L44.8579183,25.4084033 L44.5522261,26.3636028 Z M46.5996623,32.0637933 L43.7697555,28.1560845 L44.6819405,24.8789506 C44.8690568,24.0939324 44.6045597,21.8533302 44.5409696,21.308668 C44.5409696,21.308668 43.255436,20.8192648 43.1672703,20.78268 C42.6883113,20.5837829 42.1840695,20.5267035 41.5732155,20.8785758 L39.5680942,21.8998981 C38.5452895,22.4622361 38.1541426,22.6325348 38.185201,22.9341396 C38.2557454,23.619445 38.9544703,25.2338178 39.2502026,25.6856378 C39.9222892,26.7122453 40.4778628,26.4574432 40.4778628,26.4574432 L39.5871889,23.4876103 L41.3187962,22.8198046 L41.3008212,26.1177267 L40.7122445,26.9954696 C40.7122445,26.9954696 39.8836873,27.9627074 40.3299377,29.1368287 L39.9829916,29.7994081 C40.7304552,30.1849878 41.3705995,30.7475607 41.8477315,31.4321027 C42.0713282,31.1520494 42.2523743,30.9250824 42.2523743,30.9250824 L41.4635388,29.9694719 L41.5535904,29.6871871 L44.9886345,32.8943811 C44.9886345,32.8943811 46.0666016,36.1496698 46.59094,37.6760158 C46.8514885,38.4343148 47.3297403,38.5785988 47.6561184,38.5785988 C47.8567307,38.5785988 48,38.5239858 48,38.5239858 L46.5996623,32.0637933 Z M43.3819679,20.5107306 C43.3819679,20.5107306 42.6424604,18.9009383 42.6689808,18.4733124 C42.68672,18.1895595 42.7852582,17.9134995 42.949567,17.6602243 C43.1859524,17.2959612 43.5458641,17.0882556 43.927169,17.0227787 C44.3109491,16.9568907 44.7162992,17.0350519 45.0388465,17.2428163 C45.681466,17.6565834 45.9354139,18.606439 45.4674167,19.3278594 C45.3174879,19.5589371 44.7891419,20.373141 44.518221,20.7906664 C44.4837444,20.8438701 44.441135,20.8705893 44.3913944,20.8791043 C44.2747635,20.8991291 44.1189412,20.8187363 43.9372468,20.7427479 C43.6445201,20.6203677 43.3819679,20.5107306 43.3819679,20.5107306 L43.3819679,20.5107306 Z" id="picto" fill="#007DBC"></path>
    </g>
</svg>