<?xml version="1.0" encoding="UTF-8"?>
<svg width="55px" height="55px" viewBox="0 0 55 55" version="1.1" xmlns="http://www.w3.org/2000/svg" xmlns:xlink="http://www.w3.org/1999/xlink">
    <title>sports_picto/wakeboard</title>
    <g id="sports_picto/wakeboard" stroke="none" stroke-width="1" fill="none" fill-rule="evenodd">
        <path d="M47,45.6152146 C46.9343686,45.6497399 45.3590747,46.4674269 42.4409108,47.0435775 C39.7718782,47.5706174 35.4135604,47.985908 29.8073301,46.9722016 C22.9144852,45.7258366 17.750685,46.0719356 14.6325957,46.5819243 C11.256845,47.134048 9.48613742,47.9914039 9.46865452,48 L9,47.0525259 C9.07550075,47.0151821 10.8901976,46.1299241 14.4005948,45.5489823 C15.0473916,45.4418833 15.7810389,45.3419711 16.5957562,45.2605195 L23.0717608,41.4990183 C23.0717608,41.4990183 21.5319261,33.4598268 21.3638647,32.5827421 C21.1162138,31.2898736 21.0900599,30.4366043 22.3180927,29.7146019 C23.3435212,29.1116766 26.1694064,27.5812173 26.1694064,27.5812173 L25.3821824,26.1262206 L26.0189689,25.7388321 L25.9546064,25.5435173 L24.0916201,25.9599353 L23.1700316,23.2636467 C23.1700316,23.2636467 21.6220195,23.8896124 20.691901,24.2656568 C19.7655188,24.6402216 18.9132274,24.2759439 18.7689935,23.3496782 C18.5576477,21.9926208 18.4223668,19.9122221 18.4223668,19.1066542 C18.4223668,18.717786 18.4462648,18.3588633 18.4981495,18.0288997 L18.1852197,17.5848615 C18.1852197,17.5848615 18.0521945,16.3189086 18.9154832,15.3718573 C19.4494871,14.7862651 20.2661783,14.4435482 21.3852249,14.476453 L21.7494755,14.9281009 C22.4441388,14.8617277 24.1289828,14.5144309 24.8724995,14.2373826 L24.9477888,13.70534 C25.8919359,13.1039648 26.7691122,12.9800259 27.5277855,13.2095842 C28.7546903,13.5807669 29.2893286,14.7360272 29.2893286,14.7360272 L29.2547153,15.1909867 C30.0874794,16.0623642 31.0546786,17.3907445 31.9570218,18.6996074 L46.5415673,14.8881501 L46.5312045,15.6265698 L27.4063921,20.8179135 L27.4986003,21.1580234 L32.7299352,19.8978482 C33.0242542,20.5595371 33.3667921,21.4091424 32.6437896,21.960632 L33.3399333,22.7492895 L31.3887571,23.644271 L31.5647845,23.9169508 L32.8933439,23.5285759 C33.2676754,24.2894722 33.7551522,25.2396238 33.9802445,25.7218513 C34.4737135,26.7787496 35.1098655,29.6037684 32.7860497,30.3462748 C31.9993192,30.5976052 31.5533642,30.7527579 31.5533642,30.7527579 L33.0771259,35.8146668 L37.6323378,33.234637 C37.6323378,33.234637 39.6297591,32.0344232 41.5174189,32.522358 C43.1143549,32.935112 44.1632585,33.5298639 44.1632585,33.5298639 C44.1632585,33.5298639 44.9795971,34.5550553 43.280654,36.3268397 C41.3135457,38.3784203 35.4085552,42.0938407 26.9614946,45.4668261 C27.9335579,45.5891444 28.9446053,45.7421833 29.9955532,45.9322136 C35.4125734,46.911747 39.6135452,46.5190036 42.1839545,46.0169769 C44.9686703,45.473097 46.4931369,44.6874692 46.5081524,44.6796482 L47,45.6152146 Z M21.2930167,21.7670786 L22.5034255,21.5111683 L21.6398549,19.144773 L21.2930167,21.7670786 Z M27.6321189,30.4094068 L27.6250693,30.3946807 C27.622038,30.3889735 27.3264501,29.815289 27.8507961,29.350747 C27.9585839,29.2552738 28.0951338,29.1657193 28.2566391,29.0846904 L28.2591769,28.5589892 C28.0703898,28.6536873 27.7324341,28.8699992 27.5892576,28.9699817 C26.9506383,29.4160633 26.9193382,29.9750921 27.1798193,30.5991553 C27.44023,31.2231481 27.6847086,31.8090925 27.6847086,31.8090925 L24.7781764,32.4389335 L25.6369534,40.0285204 L26.7337939,39.4074165 L30.4990325,37.2748775 L27.6321189,30.4094068 Z M18.4869407,11.0969853 C18.2232873,9.56744205 19.372506,8.26583652 20.7134021,8.03472808 C22.0533818,7.80390148 23.5332952,8.74397733 23.7932124,10.252594 C23.8765381,10.7359489 24.1512594,12.3308789 24.3015559,13.204652 C24.3657069,13.5771734 23.9375873,13.8320268 23.4604733,13.9215109 C22.7974625,14.0459431 22.1421358,14.1548036 22.1421358,14.1548036 C22.1421358,14.1548036 19.5846271,13.0932549 19.1027195,12.5006168 C18.7827401,12.1073801 18.578021,11.6265619 18.4869407,11.0969853 L18.4869407,11.0969853 Z" id="picto" fill="#007DBC"></path>
    </g>
</svg>