<?xml version="1.0" encoding="UTF-8"?>
<svg width="55px" height="55px" viewBox="0 0 55 55" version="1.1" xmlns="http://www.w3.org/2000/svg" xmlns:xlink="http://www.w3.org/1999/xlink">
    <title>sports_picto/water_skiing</title>
    <g id="sports_picto/water_skiing" stroke="none" stroke-width="1" fill="none" fill-rule="evenodd">
        <path d="M25.8291859,44.8797792 L23.0708108,35.9029178 L20.478805,33.6072079 C20.478805,33.6072079 21.4842925,35.9817094 21.5714842,36.1892561 C21.6586759,36.3967281 21.6681743,36.4902324 21.6681743,36.6805271 C21.6681743,36.8708218 21.5752687,44.9024085 21.5752687,44.9024085 C22.4235143,44.9243656 23.3138345,44.9686531 24.2471199,45.0415447 L25.8291859,44.8797792 Z M20.2509192,18.9306914 L20.3378883,19.5674468 L27.5192953,21.1359591 L28.1313441,20.7412544 L20.2509192,18.9306914 Z M48,45.4723217 C47.9309145,45.5089168 46.2727876,46.3755494 43.2010418,46.9863147 C40.3916133,47.5449507 35.8039188,47.9852873 29.9024863,46.9105852 C22.6468735,45.5895755 17.2113045,45.9564231 13.9291113,46.4969108 C10.3756961,47.0821343 8.51179685,47.9908886 8.49339384,48 L8,46.9957996 C8.07954853,46.9562171 9.9898264,46.0178133 13.6849002,45.4020441 C15.0453879,45.1753036 16.7651055,44.9774659 18.8194909,44.9101756 L18.6125311,36.998606 L14.80229,31.7811853 C14.80229,31.7811853 12.8358384,29.9550133 12.4637709,28.0246573 C12.0917034,26.0943012 13.2482738,23.9321262 13.2482738,23.9321262 L11.5915569,23.5305506 C11.5915569,23.5305506 12.7853043,18.3689187 13.0350808,17.266957 C13.2849314,16.16507 14.2875991,15.1733419 15.3753808,14.9157569 C16.4631624,14.658172 18.0206663,14.8353223 19.2634637,15.3947798 C20.3973271,15.9052446 23.1883527,17.5442585 23.1883527,17.5442585 L29.8004534,19.6650587 L30.4342445,19.2563134 C30.6515188,19.1161316 30.9398822,19.1799864 31.0787953,19.3982876 C31.2178569,19.6166635 31.1546336,19.907184 30.9376561,20.0470671 L29.3983326,21.0396915 L47.5415571,21.0396915 L47.1807688,21.6658417 L28.4273507,21.6658417 L24.788599,24.0121874 C24.7106088,24.0625243 24.6234171,24.0864979 24.5372643,24.0864979 C24.38351,24.0864979 24.233095,24.0102456 24.1440481,23.8702879 C24.0049866,23.6518373 24.0681357,23.3613914 24.2851132,23.2214337 L25.5134405,22.4294104 C25.3990895,22.4250787 25.2805088,22.416042 25.1570304,22.4011799 C23.9678096,22.2575626 21.9172087,21.97227 20.39332,21.7563587 L19.8700213,24.7897967 L18.0076061,24.5993526 L18.0342459,24.8829275 L19.1442893,25.1968989 L19.1828021,26.6680233 C19.1828021,26.6680233 24.9539294,33.2857681 25.1732073,33.5371543 C25.4433161,33.8468687 25.5472783,34.0969852 25.6196289,34.4173794 C25.6749864,34.6624921 27.9342537,44.6646148 27.9342537,44.6646148 L35.4230208,43.899179 C35.8402796,43.8151595 38.3284716,43.864675 42.2993681,40.620927 C42.5826856,40.3894814 42.9989797,40.4327981 43.2290916,40.7182402 C43.4592036,41.0035329 43.4158674,41.4223605 43.1324016,41.6539554 C38.7576033,45.2278065 35.8902201,45.1646985 35.642373,45.2116 L35.6150652,45.2168279 L30.1006897,45.8083248 C35.8026573,46.8465811 40.224873,46.4302927 42.9304878,45.8981696 C45.8617622,45.3216842 47.4664609,44.4889581 47.4823409,44.4805935 L48,45.4723217 Z M15.718137,11.6197301 C15.5559233,11.1498934 15.5282446,10.6383084 15.6204823,10.1191055 C15.8882165,8.62057208 17.3727019,7.80450056 18.6780548,8.04012842 C19.9823687,8.27560691 21.0252559,9.63754343 20.7617514,11.1167337 C20.6772311,11.5903047 20.3795177,13.2593416 20.226654,14.1155184 C20.1617239,14.4804242 19.7532957,14.4294897 19.2663577,14.4289669 C18.7167902,14.4283695 18.2237674,14.427996 18.2237674,14.427996 C18.2237674,14.427996 15.9622738,12.3278087 15.718137,11.6197301 L15.718137,11.6197301 Z" id="picto" fill="#007DBC"></path>
    </g>
</svg>