<?xml version="1.0" encoding="UTF-8"?>
<svg width="55px" height="55px" viewBox="0 0 55 55" version="1.1" xmlns="http://www.w3.org/2000/svg" xmlns:xlink="http://www.w3.org/1999/xlink">
    <title>sports_picto/western_riding</title>
    <g id="sports_picto/western_riding" stroke="none" stroke-width="1" fill="none" fill-rule="evenodd">
        <path d="M35.5138491,38.6538485 L41.3614938,46.9482802 L37.4583514,46.9591426 L30.1384557,41.9893466 L22.0194655,42.5303066 C22.0194655,42.5303066 24.3498423,36.1274142 24.5496934,35.5740489 C24.9483415,34.4697252 24.9206861,33.7038024 24.4439082,32.6471252 C24.1689656,32.0378432 23.2193163,29.6023815 22.9118817,28.811216 L23.702853,28.8005387 L27.2436839,26.8940637 L28.0772547,26.068768 L39.460831,29.7985837 L36.3992583,34.0995395 L35.5138491,38.6538485 Z M28.9847387,42.738729 L27.1145837,46.9880267 L22.8107469,47 C23.2210525,45.3444711 23.583364,43.8797749 23.7772004,43.0929914 L28.9847387,42.738729 Z M22.9100214,13.9673113 C22.5591813,13.961016 22.110555,13.7686404 21.3672056,13.6082965 C21.3285127,13.8012893 21.2621644,13.9926774 21.163758,14.176968 C20.9831293,14.5154306 20.3845681,15.6367884 20.0579731,16.2486009 C19.9188276,16.5094837 19.579707,16.4426429 19.2066061,16.3228479 C18.7849531,16.1874999 18.4069536,16.0667174 18.4069536,16.0667174 C18.4069536,16.0667174 17.4186734,14.3272518 17.2108853,13.5446034 C16.7834036,13.6021247 16.435974,13.6533508 16.1375925,13.6498946 C14.5541615,13.6314409 14.9050016,12.7750392 16.0239322,12.4250353 C16.4628233,12.287774 16.8881348,12.3060426 17.2965801,12.3885599 C17.3484186,12.0117703 17.4254943,11.5638813 17.5276211,11.2701644 C17.7315027,10.6836564 18.7455162,11.0122441 19.3711128,11.0122441 C19.9966474,11.0122441 20.1441019,11.0191565 20.6280107,11.0191565 C21.1263053,11.0191565 21.2269439,11.2610919 21.4906631,12.6622183 C21.840573,12.7025203 22.2118757,12.7777548 22.5940297,12.9045857 C23.702171,13.272241 23.384133,13.9758901 22.9100214,13.9673113 L22.9100214,13.9673113 Z M24.0388113,18.458174 C24.4183609,18.322394 24.6884049,18.1069357 24.9111989,17.8564833 C25.3613754,17.3504558 26.1107396,16.4048714 26.7286472,15.683756 C27.2402735,15.8944002 27.6825751,15.9880267 28.1460833,15.9880267 C28.3430201,15.9880267 28.5440493,15.9709925 28.7557439,15.9392076 C27.3365096,16.9753326 24.9663238,18.9184066 24.3606937,20.7230466 C24.1386438,20.6729314 23.9165939,20.6482441 23.6998147,20.6519472 C23.0543756,20.6623776 22.5290456,20.9140027 22.2206188,21.3604104 C22.1529063,21.4584189 22.0992696,21.5627843 22.0576623,21.6715935 L21.5709632,19.3137733 C21.5709632,19.3137733 23.6897074,18.5830299 24.0388113,18.458174 L24.0388113,18.458174 Z M32.4961779,8.89401395 C33.9552212,7.99564391 35.3526288,7.52498096 36.6495838,7.49523279 C36.6921211,7.49418358 36.7344104,7.49375155 36.7766997,7.49375155 C37.8004484,7.49375155 38.7473074,7.78018569 39.5218467,8.32546594 C40.8416205,9.25469508 41.3327842,10.6520567 41.1357235,11.5521549 C41.0473003,11.9561622 40.7788066,12.4684232 40.001725,12.6144484 C35.3265235,13.4932538 32.6538017,14.3173769 30.8852155,14.8627188 C28.9131197,15.4708282 28.167662,15.6999262 27.061133,15.2841307 C27.5916717,14.5394389 27.6604383,13.4961546 27.2705953,13.2436654 L26.0335399,14.2941708 C26.16202,13.272241 28.3329128,11.4573557 32.4961779,8.89401395 L32.4961779,8.89401395 Z M25.2652013,21.6553616 C25.7575432,21.992343 26.1253114,22.4415897 26.3006695,22.920276 C26.4422952,23.3068788 26.4411791,23.6707076 26.3013515,23.9630049 L25.6676319,23.7477936 C25.2898184,23.4079732 24.8431763,22.7880139 24.721207,21.7075135 C24.7085574,21.5953098 24.7092395,21.4781687 24.7217031,21.3568924 C24.9074784,21.4357683 25.0901534,21.5355666 25.2652013,21.6553616 L25.2652013,21.6553616 Z M22.4814236,22.5944657 C22.4023016,22.2442149 22.4442809,21.9080359 22.6293742,21.640179 C22.8443552,21.3290575 23.2273153,21.1534076 23.7078757,21.1456311 C23.7191611,21.1453842 23.7303845,21.1453225 23.7416699,21.1453225 C23.9058665,21.1453225 24.0739697,21.1649489 24.2427549,21.2024118 C24.2139833,21.3921952 24.2075345,21.5794483 24.2282451,21.7626896 C24.3083591,22.4722019 24.5137909,23.0118658 24.7602099,23.4193294 L22.4814236,22.5944657 Z M40.885398,27.7973095 L42.8423639,28.3884464 L44.2584358,29.8828907 L40.3241035,28.5858829 L40.885398,27.7973095 Z M10.8504982,40.9401991 L11.103614,40.9475435 C12.9174039,42.7528624 19.2762408,42.5601782 19.2762408,42.5601782 C19.2634052,42.6197363 19.2516237,42.6744186 19.2410824,42.7231143 C18.9406547,44.1156619 20.4937638,44.9094196 20.4937638,44.9094196 C20.4937638,44.9094196 23.7592801,35.9383097 23.9661381,35.365318 C24.3193345,34.3868994 24.2815718,33.7938493 23.8782731,32.8999847 C23.5451052,32.1617116 22.2374849,28.7862818 22.2374849,28.7862818 L22.2363688,28.7835662 L22.1752291,24.6352395 C22.1752291,24.6352395 24.1767786,24.9661725 24.8357354,25.0731301 C25.4946922,25.1801494 26.0200842,25.0219657 26.4284055,24.7850913 L28.6379911,25.5134894 C28.6317283,25.5196612 47.7717973,31.8069554 47.7717973,31.8069554 C48.7545587,30.5767267 49.2950187,29.372975 48.8322545,28.5591589 C48.3671961,27.7413928 45.1230725,21.627897 45.1230725,21.627897 L45.1161276,21.6146893 L40.6058669,17.1773363 L40.7092339,18.349982 L39.3657111,17.341877 L39.48458,19.1066471 C36.5723221,19.1066471 34.2010821,19.9931055 32.648221,21.5387142 C32.1477561,22.0368418 29.2290494,24.9281541 29.2290494,24.9281541 L26.7754011,24.1192754 C26.9482168,23.7185392 26.9469767,23.2433091 26.76672,22.7511682 C26.5563276,22.1768187 26.1228311,21.6431414 25.5462827,21.2485153 C25.317846,21.0921214 25.0768837,20.9649202 24.8310228,20.8683312 C25.1231415,19.9958828 25.9496433,18.941736 27.2725176,17.7657576 C28.5583731,16.6227366 29.8934009,15.7451039 30.0827727,15.6222847 C30.3707989,15.5380393 30.6840002,15.4416355 31.0320499,15.3343076 C32.7899088,14.7922984 35.4463226,13.9731745 40.0938065,13.0996769 C40.9082169,12.946554 41.450351,12.434293 41.6204384,11.657261 C41.8906683,10.4226502 41.1285926,8.85192214 39.8082607,7.92232269 C38.9142323,7.29285882 37.8180586,6.97488669 36.6381123,7.00154895 C35.2516801,7.03345725 33.770376,7.5288692 32.2351871,8.47408335 C26.2062316,12.1862476 25.4857631,13.6191589 25.5317108,14.4527249 C25.5361134,14.5336991 25.5496311,14.6116492 25.5711478,14.6868837 L23.0778765,16.8043115 L20.1583637,17.1330226 C20.1583637,17.1330226 18.4610864,16.6149601 18.0529511,16.4909065 C17.9903853,16.4718973 17.9237889,16.4630716 17.8544022,16.4630716 C17.1004495,16.4629482 16.0032836,17.5062943 15.8289797,17.8990689 C15.6672634,18.2635148 15.5350628,19.7999275 15.8055408,21.3244287 C16.2161563,23.638861 17.1111768,24.9031582 17.1111768,24.9031582 C17.1111768,24.9031582 16.8694704,25.9283591 16.6262759,26.98948 C16.3376296,28.2491484 16.4908509,28.8965105 16.4908509,28.8965105 L13.3856867,28.9403305 L11.7935126,33.6945447 C12.440688,34.0755311 14.7266052,35.2607056 17.7419201,35.0103766 L17.7907202,35.5934284 C17.4835336,35.6188563 17.1838499,35.6305828 16.8925993,35.6306445 C13.5989935,35.6306445 11.3755181,34.1307072 11.2745074,34.0613359 L11.0929486,33.9365418 L12.7903499,28.8681202 C11.0804851,28.2058839 9.45538487,27.969565 8,27.9727743 L8,46.1492764 L11.3086117,41.9099153 L10.8504982,40.9401991 Z" id="picto" fill="#007DBC"></path>
    </g>
</svg>