<?xml version="1.0" encoding="UTF-8"?>
<svg width="55px" height="55px" viewBox="0 0 55 55" version="1.1" xmlns="http://www.w3.org/2000/svg" xmlns:xlink="http://www.w3.org/1999/xlink">
    <title>sports_picto/windsurfing</title>
    <g id="sports_picto/windsurfing" stroke="none" stroke-width="1" fill="none" fill-rule="evenodd">
        <path d="M46,49.1600469 L46,50 C36.7058851,50 31.9815654,48.9989858 27.4127514,48.0308698 C22.8862652,47.0718533 18.2058851,46.0802186 9,46.0802186 L9,45.2402655 C14.1680613,45.2402655 17.9227651,45.5497882 21.0238402,45.9910436 C20.9865581,45.7465472 20.9791997,45.4690827 21.0098243,45.1525604 C21.1664514,43.5355806 22.884303,41.645336 24.495424,40.5674661 C22.0757992,38.9416668 16.5196392,34.9687584 13.78648,31.0564666 L13.6740029,30.8954756 L13.7039968,30.7014464 C14.1471777,27.8292966 24.1749518,10.2754657 25.0049699,8.88695319 C25.5582453,7.96132482 26.8797289,7.05781522 28.9325592,6.20141299 C30.4166967,5.58229752 31.7307519,5.21908778 31.7859743,5.20396862 L32.5287438,5 L29.5360813,22.5723799 L32.406806,23.6508097 L35.2593101,23.6508097 C35.8399164,23.6508097 35.8529511,23.6520696 36.3709766,24.3102429 C36.7051143,24.7346992 37.0303519,25.3324659 36.9723263,26.0086982 C36.8580972,27.3398139 35.9058609,31.1318524 35.9058609,31.1318524 C35.9058609,31.1318524 35.8518999,31.8669514 35.8081004,32.7149541 C35.6856019,35.0855819 34.1529697,35.7891127 34.1529697,35.7891127 L31.1978696,39.6955248 L31.1180494,42.7255858 C31.7199597,43.5160517 32.1454106,44.3665742 32.2215867,45.1525604 C32.3066628,46.0309414 32.1031528,46.6137289 31.7604655,47.0030472 C30.0803165,46.754911 27.291234,46.1770932 26.4760026,45.0054986 C26.0234311,45.6353235 24.8706982,46.0944978 23.6567861,46.4185798 C25.0415513,46.6700057 26.3204968,46.9408906 27.5872486,47.2092557 C32.1136647,48.1682722 36.7941149,49.1600469 46,49.1600469 L46,49.1600469 Z M33.7076163,22.945319 C33.7553402,23.2113042 34.0552792,23.1742063 34.4129635,23.1737863 C34.8166198,23.1734363 35.178719,23.1730863 35.178719,23.1730863 C35.178719,23.1730863 36.8398065,21.6422017 37.0191392,21.1260505 C37.1382739,20.7836296 37.1585968,20.4106204 37.0908302,20.0321515 C36.894188,18.9398625 35.8038956,18.3451056 34.8450719,18.5167361 C33.8870891,18.6884365 33.1210533,19.6812611 33.314542,20.759411 C33.3767023,21.1046317 33.5953494,22.3212339 33.7076163,22.945319 L33.7076163,22.945319 Z M27.5443601,28.4234935 C27.5443601,28.4234935 25.5848754,28.3163995 25.5124135,28.3012803 L15.0106937,31.0664061 C17.9263392,34.8528449 25.4908992,40.0013377 25.4908992,40.0013377 L27.5443601,28.4234935 Z M27.7275472,39.9649397 C28.1243357,40.1334203 28.5461424,40.3740669 28.9665476,40.6679105 C28.9617822,40.2201455 28.9588389,39.9025032 28.9588389,39.8156381 C28.9588389,39.2497896 28.9634641,39.2359304 29.150926,38.8092342 C29.3615841,38.3296209 29.8271203,37.2234726 29.8271203,37.2234726 L27.9232784,38.8968693 L27.7275472,39.9649397 Z M24.2355703,27.0671791 L29.7475103,26.657562 L31.7685947,25.5869017 L29.2628425,24.1766204 L28.9613617,25.9467516 L27.9576172,25.9968688 L31.2996947,6.37318341 C29.5760265,6.9272725 26.619665,8.09732724 25.847322,9.38931517 C24.2519688,12.0582663 16.3693193,26.0694548 14.8984268,30.082541 L24.4856129,27.5582018 C24.3099944,27.2955764 24.2355703,27.0671791 24.2355703,27.0671791 L24.2355703,27.0671791 Z M31.1758647,28.2514431 C30.4184486,28.539127 30.327626,28.5634857 29.5200332,28.5229579 C29.2324281,28.5086087 28.5310754,28.4733307 28.5310754,28.4733307 L27.2340494,36.0890459 L30.7790062,32.1652748 L31.3603833,29.955708 L31.5647342,28.1034713 C31.5647342,28.1034713 31.2447526,28.2253345 31.1758647,28.2514431 L31.1758647,28.2514431 Z" id="picto" fill="#007DBC"></path>
    </g>
</svg>